<svg xmlns="http://www.w3.org/2000/svg" xmlns:xlink="http://www.w3.org/1999/xlink" width="1920" zoomAndPan="magnify" viewBox="0 0 1440 809.999993" height="1080" preserveAspectRatio="xMidYMid meet" version="1.0"><defs><filter x="0%" y="0%" width="100%" height="100%" id="42415cb8e5"><feColorMatrix values="0 0 0 0 1 0 0 0 0 1 0 0 0 0 1 0 0 0 1 0" color-interpolation-filters="sRGB"/></filter><g/><mask id="caa36f178b"><g filter="url(#42415cb8e5)"><rect x="-144" width="1728" fill="#000000" y="-80.999999" height="971.999992" fill-opacity="0.9"/></g></mask><clipPath id="ad630487cf"><rect x="0" width="536" y="0" height="576"/></clipPath><mask id="d4875f18b6"><g filter="url(#42415cb8e5)"><rect x="-144" width="1728" fill="#000000" y="-80.999999" height="971.999992" fill-opacity="0.5"/></g></mask><clipPath id="a9d98d6375"><rect x="0" width="967" y="0" height="285"/></clipPath></defs><g mask="url(#caa36f178b)"><g transform="matrix(1, 0, 0, 1, 452, 57)"><g clip-path="url(#ad630487cf)"><g fill="#fffaeb" fill-opacity="1"><g transform="translate(1.691393, 460.17871)"><g><path d="M 14.375 -27.03125 C 24.34375 -18.976562 36.898438 -11.5 52.046875 -4.59375 C 67.191406 2.300781 87.035156 5.75 111.578125 5.75 C 127.296875 5.75 141.863281 2.679688 155.28125 -3.453125 C 168.707031 -9.585938 179.539062 -18.882812 187.78125 -31.34375 C 196.03125 -43.800781 200.15625 -59.425781 200.15625 -78.21875 C 200.15625 -94.320312 196.894531 -107.550781 190.375 -117.90625 C 183.851562 -128.257812 175.128906 -136.882812 164.203125 -143.78125 C 153.273438 -150.6875 141.289062 -156.628906 128.25 -161.609375 C 115.21875 -166.597656 102.085938 -171.875 88.859375 -177.4375 C 75.628906 -183 63.550781 -189.613281 52.625 -197.28125 C 41.695312 -204.945312 32.972656 -214.816406 26.453125 -226.890625 C 19.929688 -238.972656 16.671875 -254.21875 16.671875 -272.625 C 16.671875 -290.644531 20.125 -305.976562 27.03125 -318.625 C 33.9375 -331.28125 42.945312 -341.539062 54.0625 -349.40625 C 65.1875 -357.269531 77.070312 -363.019531 89.71875 -366.65625 C 102.375 -370.300781 114.453125 -372.125 125.953125 -372.125 C 141.296875 -372.125 155.003906 -370.300781 167.078125 -366.65625 C 179.160156 -363.019531 188.75 -359.378906 195.84375 -355.734375 C 202.9375 -352.085938 206.484375 -350.265625 206.484375 -350.265625 L 207.0625 -338.765625 C 207.0625 -338.765625 203.703125 -340.679688 196.984375 -344.515625 C 190.273438 -348.347656 180.878906 -352.273438 168.796875 -356.296875 C 156.722656 -360.328125 142.441406 -362.34375 125.953125 -362.34375 C 101.421875 -362.34375 82.347656 -355.054688 68.734375 -340.484375 C 55.117188 -325.921875 48.3125 -308.285156 48.3125 -287.578125 C 48.3125 -270.328125 52.816406 -256.332031 61.828125 -245.59375 C 70.835938 -234.851562 82.335938 -225.9375 96.328125 -218.84375 C 110.328125 -211.75 125.1875 -205.035156 140.90625 -198.703125 C 156.632812 -192.378906 171.492188 -185.097656 185.484375 -176.859375 C 199.484375 -168.617188 210.890625 -157.785156 219.703125 -144.359375 C 228.523438 -130.941406 232.9375 -113.6875 232.9375 -92.59375 C 232.9375 -71.125 227.179688 -52.335938 215.671875 -36.234375 C 204.171875 -20.128906 189.125 -7.671875 170.53125 1.140625 C 151.9375 9.960938 132.285156 14.375 111.578125 14.375 C 90.867188 14.375 73.328125 12.070312 58.953125 7.46875 C 44.578125 2.875 33.550781 -1.722656 25.875 -6.328125 C 18.207031 -10.929688 14.375 -13.234375 14.375 -13.234375 Z M 14.375 -27.03125 "/></g></g></g><g fill="#fffaeb" fill-opacity="1"><g transform="translate(257.637146, 460.17871)"><g><path d="M 136.890625 -361.203125 C 144.171875 -361.203125 154.234375 -360.144531 167.078125 -358.03125 C 179.921875 -355.925781 192.863281 -351.804688 205.90625 -345.671875 C 218.945312 -339.535156 229.972656 -330.425781 238.984375 -318.34375 C 247.992188 -306.269531 252.5 -290.457031 252.5 -270.90625 C 252.5 -250.195312 248.28125 -233.226562 239.84375 -220 C 231.40625 -206.769531 220.664062 -196.609375 207.625 -189.515625 C 194.59375 -182.421875 181.269531 -177.242188 167.65625 -173.984375 C 154.039062 -170.722656 141.960938 -168.804688 131.421875 -168.234375 C 120.878906 -167.660156 113.882812 -167.375 110.4375 -167.375 L 69.015625 -167.375 L 69.015625 0.578125 L 27.609375 0.578125 L 27.609375 -361.203125 C 27.609375 -361.203125 31.921875 -361.203125 40.546875 -361.203125 C 49.171875 -361.203125 59.617188 -361.203125 71.890625 -361.203125 C 84.160156 -361.203125 96.332031 -361.203125 108.40625 -361.203125 C 120.488281 -361.203125 129.984375 -361.203125 136.890625 -361.203125 Z M 100.078125 -177.140625 C 133.816406 -177.140625 160.460938 -183.660156 180.015625 -196.703125 C 199.578125 -209.742188 209.359375 -232.175781 209.359375 -264 C 209.359375 -295.820312 201.015625 -318.347656 184.328125 -331.578125 C 167.648438 -344.804688 144.550781 -351.421875 115.03125 -351.421875 L 69.015625 -351.421875 L 69.015625 -177.140625 Z M 100.078125 -177.140625 "/></g></g></g></g></g></g><g mask="url(#d4875f18b6)"><g transform="matrix(1, 0, 0, 1, 217, 204)"><g clip-path="url(#a9d98d6375)"><g fill="#fffaeb" fill-opacity="1"><g transform="translate(16.837529, 185.047413)"><g><path d="M 92.234375 -23 C 92.753906 -23 93.195312 -22.816406 93.5625 -22.453125 C 93.925781 -22.085938 94.109375 -21.644531 94.109375 -21.125 C 94.109375 -20.1875 93.675781 -19.597656 92.8125 -19.359375 C 84.945312 -16.609375 77.664062 -14.109375 70.96875 -11.859375 C 64.28125 -9.617188 58.15625 -7.578125 52.59375 -5.734375 L 47.375 -4.0625 C 47.375 -4.0625 47.375 -4.050781 47.375 -4.03125 C 47.375 -4.019531 47.375 -4.015625 47.375 -4.015625 C 47.507812 -3.421875 47.578125 -2.691406 47.578125 -1.828125 C 47.578125 -0.0546875 47.019531 1.710938 45.90625 3.484375 C 44.789062 5.265625 43.25 6.9375 41.28125 8.5 C 39.320312 10.0625 37.082031 11.453125 34.5625 12.671875 C 32.039062 13.890625 29.363281 14.847656 26.53125 15.546875 C 23.695312 16.242188 20.835938 16.59375 17.953125 16.59375 C 14.429688 16.59375 11.660156 16.117188 9.640625 15.171875 C 7.628906 14.234375 6.625 12.914062 6.625 11.21875 C 6.625 10.28125 6.921875 9.382812 7.515625 8.53125 C 8.109375 7.675781 9.148438 6.796875 10.640625 5.890625 C 12.140625 4.984375 14.234375 3.957031 16.921875 2.8125 C 19.617188 1.664062 23.0625 0.347656 27.25 -1.140625 C 31.445312 -2.640625 36.535156 -4.398438 42.515625 -6.421875 C 41.441406 -8.328125 39.722656 -10.28125 37.359375 -12.28125 C 34.992188 -14.28125 31.945312 -16.304688 28.21875 -18.359375 C 25.613281 -19.828125 23.207031 -21.320312 21 -22.84375 C 18.789062 -24.375 16.894531 -26.023438 15.3125 -27.796875 C 13.726562 -29.578125 12.597656 -31.546875 11.921875 -33.703125 C 11.242188 -35.859375 11.148438 -38.3125 11.640625 -41.0625 C 12.117188 -43.800781 13.238281 -46.507812 15 -49.1875 C 16.757812 -51.875 19.003906 -54.453125 21.734375 -56.921875 C 24.460938 -59.390625 27.519531 -61.71875 30.90625 -63.90625 C 34.300781 -66.09375 37.894531 -68.082031 41.6875 -69.875 C 45.476562 -71.664062 49.3125 -73.210938 53.1875 -74.515625 C 57.0625 -75.828125 60.859375 -76.828125 64.578125 -77.515625 C 68.304688 -78.210938 71.769531 -78.5625 74.96875 -78.5625 C 78.96875 -78.5625 82.304688 -77.960938 84.984375 -76.765625 C 87.660156 -75.566406 89.585938 -73.863281 90.765625 -71.65625 C 91.953125 -69.445312 92.269531 -66.796875 91.71875 -63.703125 C 91.050781 -59.734375 89.289062 -55.851562 86.4375 -52.0625 C 83.59375 -48.269531 79.804688 -44.773438 75.078125 -41.578125 C 74.796875 -41.335938 74.425781 -41.21875 73.96875 -41.21875 C 73.445312 -41.21875 73.003906 -41.398438 72.640625 -41.765625 C 72.273438 -42.128906 72.09375 -42.570312 72.09375 -43.09375 C 72.09375 -43.75 72.375 -44.269531 72.9375 -44.65625 C 77.28125 -47.613281 80.726562 -50.769531 83.28125 -54.125 C 85.84375 -57.476562 87.4375 -60.878906 88.0625 -64.328125 C 88.65625 -67.734375 87.828125 -70.332031 85.578125 -72.125 C 83.335938 -73.914062 79.800781 -74.8125 74.96875 -74.8125 C 71.875 -74.8125 68.5625 -74.476562 65.03125 -73.8125 C 61.5 -73.15625 57.894531 -72.226562 54.21875 -71.03125 C 50.550781 -69.832031 46.9375 -68.40625 43.375 -66.75 C 39.8125 -65.09375 36.4375 -63.265625 33.25 -61.265625 C 30.070312 -59.265625 27.210938 -57.125 24.671875 -54.84375 C 22.140625 -52.570312 20.054688 -50.226562 18.421875 -47.8125 C 16.785156 -45.394531 15.738281 -42.9375 15.28125 -40.4375 C 14.800781 -37.539062 15.097656 -35.039062 16.171875 -32.9375 C 17.253906 -30.832031 18.992188 -28.894531 21.390625 -27.125 C 23.785156 -25.351562 26.691406 -23.507812 30.109375 -21.59375 C 38.421875 -16.9375 43.757812 -12.273438 46.125 -7.609375 L 46.125 -7.5625 C 46.125 -7.5625 46.128906 -7.5625 46.140625 -7.5625 C 46.160156 -7.5625 46.171875 -7.5625 46.171875 -7.5625 L 51.390625 -9.34375 C 56.953125 -11.1875 63.078125 -13.226562 69.765625 -15.46875 C 76.460938 -17.707031 83.742188 -20.1875 91.609375 -22.90625 C 91.816406 -22.96875 92.023438 -23 92.234375 -23 Z M 17.953125 12.828125 C 20.316406 12.828125 22.722656 12.539062 25.171875 11.96875 C 27.617188 11.394531 29.957031 10.601562 32.1875 9.59375 C 34.414062 8.59375 36.40625 7.460938 38.15625 6.203125 C 39.914062 4.953125 41.300781 3.628906 42.3125 2.234375 C 43.320312 0.847656 43.828125 -0.503906 43.828125 -1.828125 C 43.828125 -2.003906 43.828125 -2.171875 43.828125 -2.328125 C 43.828125 -2.484375 43.804688 -2.644531 43.765625 -2.8125 C 37.441406 -0.695312 32.128906 1.132812 27.828125 2.6875 C 23.535156 4.238281 20.109375 5.550781 17.546875 6.625 C 14.992188 7.707031 13.160156 8.613281 12.046875 9.34375 C 10.929688 10.070312 10.375 10.695312 10.375 11.21875 C 10.375 11.425781 10.75 11.648438 11.5 11.890625 C 12.25 12.140625 13.207031 12.359375 14.375 12.546875 C 15.539062 12.734375 16.734375 12.828125 17.953125 12.828125 Z M 17.953125 12.828125 "/></g></g></g><g fill="#fffaeb" fill-opacity="1"><g transform="translate(93.450163, 185.047413)"><g><path d="M 67.984375 -21.1875 C 68.460938 -21.1875 68.894531 -20.992188 69.28125 -20.609375 C 69.664062 -20.222656 69.859375 -19.785156 69.859375 -19.296875 C 69.859375 -18.640625 69.578125 -18.117188 69.015625 -17.734375 C 66.128906 -15.828125 63.035156 -14.1875 59.734375 -12.8125 C 56.429688 -11.4375 53.019531 -10.28125 49.5 -9.34375 C 45.988281 -8.40625 42.484375 -7.628906 38.984375 -7.015625 C 35.492188 -6.410156 32.128906 -5.90625 28.890625 -5.5 C 25.660156 -5.101562 22.65625 -4.765625 19.875 -4.484375 C 17.332031 -3.679688 15.164062 -3.003906 13.375 -2.453125 C 11.582031 -1.898438 10.0625 -1.625 8.8125 -1.625 C 7.945312 -1.625 7.242188 -1.820312 6.703125 -2.21875 C 6.160156 -2.613281 5.890625 -3.144531 5.890625 -3.8125 C 5.890625 -4.539062 6.226562 -5.222656 6.90625 -5.859375 C 7.59375 -6.503906 8.847656 -7.035156 10.671875 -7.453125 C 12.492188 -7.878906 15.144531 -8.109375 18.625 -8.140625 C 21.164062 -9.734375 23.453125 -11.398438 25.484375 -13.140625 C 27.515625 -14.878906 29.140625 -16.492188 30.359375 -17.984375 C 31.578125 -19.484375 32.1875 -20.65625 32.1875 -21.5 C 32.1875 -21.945312 31.890625 -22.171875 31.296875 -22.171875 C 29.492188 -22.171875 27.207031 -21.484375 24.4375 -20.109375 C 21.675781 -18.734375 18.585938 -16.800781 15.171875 -14.3125 C 11.765625 -11.832031 8.203125 -8.894531 4.484375 -5.5 C 0.765625 -2.113281 -2.953125 1.613281 -6.671875 5.6875 C -14.847656 14.59375 -22.300781 22.832031 -29.03125 30.40625 C -35.757812 37.988281 -41.835938 44.894531 -47.265625 51.125 C -48.273438 52.445312 -49.265625 53.742188 -50.234375 55.015625 C -51.210938 56.285156 -52.171875 57.53125 -53.109375 58.75 L -60.359375 68.234375 C -64.429688 73.523438 -67.875 78.003906 -70.6875 81.671875 C -73.507812 85.335938 -75.84375 88.300781 -77.6875 90.5625 C -79.53125 92.820312 -81.003906 94.460938 -82.109375 95.484375 C -83.222656 96.515625 -84.09375 97.03125 -84.71875 97.03125 C -87.46875 97.03125 -85.878906 92.976562 -79.953125 84.875 C -74.023438 76.769531 -63.929688 64.507812 -49.671875 48.09375 C -41.460938 37.414062 -31.648438 24.804688 -20.234375 10.265625 C -8.828125 -4.265625 4.382812 -20.832031 19.40625 -39.4375 C 19.71875 -39.925781 20.207031 -40.171875 20.875 -40.171875 C 21.351562 -40.171875 21.785156 -39.976562 22.171875 -39.59375 C 22.554688 -39.207031 22.75 -38.773438 22.75 -38.296875 C 22.75 -37.804688 22.59375 -37.40625 22.28125 -37.09375 L 22.328125 -37.140625 C 19.054688 -33.109375 15.851562 -29.144531 12.71875 -25.25 C 9.59375 -21.351562 6.445312 -17.421875 3.28125 -13.453125 C 0.125 -9.492188 -3.125 -5.410156 -6.46875 -1.203125 C -9.8125 3.003906 -13.320312 7.421875 -17 12.046875 L -9.390625 3.078125 C -5.460938 -1.234375 -1.535156 -5.160156 2.390625 -8.703125 C 6.328125 -12.253906 10.113281 -15.304688 13.75 -17.859375 C 17.382812 -20.421875 20.722656 -22.390625 23.765625 -23.765625 C 26.804688 -25.140625 29.421875 -25.828125 31.609375 -25.828125 C 32.929688 -25.828125 33.984375 -25.488281 34.765625 -24.8125 C 35.546875 -24.132812 35.9375 -23.21875 35.9375 -22.0625 C 35.9375 -20.363281 35.078125 -18.347656 33.359375 -16.015625 C 31.640625 -13.679688 29.285156 -11.332031 26.296875 -8.96875 C 29.566406 -9.351562 32.972656 -9.832031 36.515625 -10.40625 C 40.066406 -10.976562 43.625 -11.71875 47.1875 -12.625 C 50.75 -13.53125 54.207031 -14.644531 57.5625 -15.96875 C 60.925781 -17.289062 64.03125 -18.90625 66.875 -20.8125 C 67.257812 -21.0625 67.628906 -21.1875 67.984375 -21.1875 Z M 67.984375 -21.1875 "/></g></g></g><g fill="#fffaeb" fill-opacity="1"><g transform="translate(147.368501, 185.047413)"><g><path d="M 74.296875 -21.1875 C 74.773438 -21.1875 75.207031 -20.992188 75.59375 -20.609375 C 75.976562 -20.222656 76.171875 -19.785156 76.171875 -19.296875 C 76.171875 -18.640625 75.890625 -18.117188 75.328125 -17.734375 C 72.691406 -15.859375 69.769531 -14.015625 66.5625 -12.203125 C 63.363281 -10.398438 60.09375 -8.722656 56.75 -7.171875 C 53.414062 -5.628906 50.15625 -4.265625 46.96875 -3.078125 C 43.789062 -1.890625 40.894531 -0.96875 38.28125 -0.3125 C 35.675781 0.34375 33.523438 0.671875 31.828125 0.671875 C 28.898438 0.671875 26.660156 0.03125 25.109375 -1.25 C 23.566406 -2.539062 22.796875 -4.398438 22.796875 -6.828125 C 22.796875 -8.816406 23.253906 -10.835938 24.171875 -12.890625 C 25.097656 -14.941406 26.15625 -16.90625 27.34375 -18.78125 C 27.613281 -19.226562 27.671875 -19.519531 27.515625 -19.65625 C 27.359375 -19.800781 27.070312 -19.71875 26.65625 -19.40625 C 26.3125 -19.164062 25.960938 -18.914062 25.609375 -18.65625 C 25.265625 -18.394531 24.898438 -18.125 24.515625 -17.84375 C 22.535156 -16.414062 20.390625 -14.875 18.078125 -13.21875 C 15.765625 -11.570312 13.414062 -9.957031 11.03125 -8.375 C 8.644531 -6.789062 6.320312 -5.347656 4.0625 -4.046875 C 1.800781 -2.742188 -0.289062 -1.695312 -2.21875 -0.90625 C -4.144531 -0.125 -5.785156 0.265625 -7.140625 0.265625 C -8.566406 0.265625 -9.710938 -0.113281 -10.578125 -0.875 C -11.453125 -1.644531 -11.890625 -2.675781 -11.890625 -3.96875 C -11.890625 -5.351562 -11.347656 -6.84375 -10.265625 -8.4375 C -9.191406 -10.039062 -7.757812 -11.660156 -5.96875 -13.296875 C -4.175781 -14.929688 -2.1875 -16.492188 0 -17.984375 C 2.1875 -19.484375 4.398438 -20.828125 6.640625 -22.015625 C 8.890625 -23.203125 11.015625 -24.132812 13.015625 -24.8125 C 15.015625 -25.488281 16.691406 -25.828125 18.046875 -25.828125 C 19.722656 -25.828125 21.070312 -25.570312 22.09375 -25.0625 C 23.113281 -24.5625 23.972656 -23.738281 24.671875 -22.59375 C 26.660156 -24.019531 28.21875 -25.125 29.34375 -25.90625 C 30.476562 -26.6875 31.359375 -27.222656 31.984375 -27.515625 C 32.609375 -27.816406 33.113281 -27.96875 33.5 -27.96875 C 34.125 -27.96875 34.648438 -27.753906 35.078125 -27.328125 C 35.515625 -26.910156 35.734375 -26.390625 35.734375 -25.765625 C 35.734375 -25.179688 35.488281 -24.476562 35 -23.65625 C 34.519531 -22.84375 33.859375 -21.828125 33.015625 -20.609375 C 32.117188 -19.285156 31.164062 -17.832031 30.15625 -16.25 C 29.144531 -14.664062 28.289062 -13.066406 27.59375 -11.453125 C 26.894531 -9.835938 26.546875 -8.296875 26.546875 -6.828125 C 26.546875 -5.515625 26.953125 -4.5625 27.765625 -3.96875 C 28.585938 -3.375 29.941406 -3.078125 31.828125 -3.078125 C 33.285156 -3.078125 35.210938 -3.375 37.609375 -3.96875 C 40.015625 -4.5625 42.710938 -5.394531 45.703125 -6.46875 C 48.691406 -7.550781 51.796875 -8.828125 55.015625 -10.296875 C 58.234375 -11.773438 61.40625 -13.398438 64.53125 -15.171875 C 67.664062 -16.953125 70.550781 -18.832031 73.1875 -20.8125 C 73.46875 -21.0625 73.835938 -21.1875 74.296875 -21.1875 Z M 21.59375 -20.390625 C 21.21875 -21.085938 20.800781 -21.539062 20.34375 -21.75 C 19.894531 -21.957031 19.128906 -22.0625 18.046875 -22.0625 C 16.765625 -22.0625 15.226562 -21.738281 13.4375 -21.09375 C 11.644531 -20.457031 9.765625 -19.609375 7.796875 -18.546875 C 5.835938 -17.484375 3.914062 -16.304688 2.03125 -15.015625 C 0.15625 -13.734375 -1.546875 -12.429688 -3.078125 -11.109375 C -4.609375 -9.785156 -5.832031 -8.53125 -6.75 -7.34375 C -7.675781 -6.164062 -8.140625 -5.175781 -8.140625 -4.375 C -8.140625 -3.789062 -7.804688 -3.5 -7.140625 -3.5 C -5.472656 -3.5 -3.222656 -4.242188 -0.390625 -5.734375 C 2.441406 -7.234375 5.726562 -9.257812 9.46875 -11.8125 C 13.207031 -14.375 17.25 -17.234375 21.59375 -20.390625 Z M 21.59375 -20.390625 "/></g></g></g><g fill="#fffaeb" fill-opacity="1"><g transform="translate(207.59952, 185.047413)"><g><path d="M -6.625 0.421875 C -7.425781 0.421875 -8.050781 0.125 -8.5 -0.46875 C -8.957031 -1.0625 -9.097656 -1.773438 -8.921875 -2.609375 C -8.816406 -3.160156 -8.328125 -4.125 -7.453125 -5.5 C -6.585938 -6.875 -5.429688 -8.539062 -3.984375 -10.5 C -2.546875 -12.46875 -0.890625 -14.597656 0.984375 -16.890625 C 2.867188 -19.191406 4.894531 -21.523438 7.0625 -23.890625 C 9.238281 -26.253906 11.484375 -28.53125 13.796875 -30.71875 C 16.109375 -32.914062 18.414062 -34.882812 20.71875 -36.625 C 21.09375 -36.863281 21.472656 -36.984375 21.859375 -36.984375 C 22.378906 -36.984375 22.820312 -36.800781 23.1875 -36.4375 C 23.550781 -36.070312 23.734375 -35.628906 23.734375 -35.109375 C 23.734375 -34.484375 23.488281 -33.976562 23 -33.59375 C 20.632812 -31.820312 18.28125 -29.820312 15.9375 -27.59375 C 13.59375 -25.375 11.347656 -23.097656 9.203125 -20.765625 C 7.066406 -18.429688 5.132812 -16.210938 3.40625 -14.109375 C 1.6875 -12.003906 0.273438 -10.1875 -0.828125 -8.65625 C -1.035156 -8.382812 -1.085938 -8.175781 -0.984375 -8.03125 C -0.878906 -7.894531 -0.640625 -7.945312 -0.265625 -8.1875 C 5.890625 -12.601562 11.203125 -16.210938 15.671875 -19.015625 C 20.140625 -21.816406 23.929688 -23.882812 27.046875 -25.21875 C 30.160156 -26.5625 32.691406 -27.234375 34.640625 -27.234375 C 35.992188 -27.234375 37.0625 -26.894531 37.84375 -26.21875 C 38.625 -25.539062 39.015625 -24.59375 39.015625 -23.375 C 39.015625 -22.289062 38.820312 -20.863281 38.4375 -19.09375 C 38.0625 -17.320312 37.664062 -15.566406 37.25 -13.828125 C 36.90625 -12.328125 36.59375 -10.957031 36.3125 -9.71875 C 36.03125 -8.488281 35.890625 -7.613281 35.890625 -7.09375 C 35.890625 -6.601562 36.035156 -6.253906 36.328125 -6.046875 C 36.628906 -5.835938 37.160156 -5.734375 37.921875 -5.734375 C 39.910156 -5.734375 42.242188 -6.085938 44.921875 -6.796875 C 47.597656 -7.515625 50.523438 -8.535156 53.703125 -9.859375 C 56.890625 -11.179688 60.210938 -12.769531 63.671875 -14.625 C 67.128906 -16.488281 70.597656 -18.570312 74.078125 -20.875 C 74.390625 -21.082031 74.738281 -21.1875 75.125 -21.1875 C 75.644531 -21.1875 76.085938 -21 76.453125 -20.625 C 76.816406 -20.257812 77 -19.816406 77 -19.296875 C 77 -18.566406 76.703125 -18.046875 76.109375 -17.734375 C 72.460938 -15.335938 68.828125 -13.164062 65.203125 -11.21875 C 61.585938 -9.269531 58.109375 -7.609375 54.765625 -6.234375 C 51.429688 -4.859375 48.328125 -3.804688 45.453125 -3.078125 C 42.585938 -2.347656 40.078125 -1.984375 37.921875 -1.984375 C 36.117188 -1.984375 34.703125 -2.429688 33.671875 -3.328125 C 32.648438 -4.234375 32.140625 -5.488281 32.140625 -7.09375 C 32.140625 -7.820312 32.296875 -8.890625 32.609375 -10.296875 C 32.921875 -11.710938 33.25 -13.1875 33.59375 -14.71875 C 34.007812 -16.445312 34.390625 -18.085938 34.734375 -19.640625 C 35.085938 -21.191406 35.265625 -22.191406 35.265625 -22.640625 C 35.265625 -23.191406 34.988281 -23.46875 34.4375 -23.46875 C 33.25 -23.46875 31.785156 -23.128906 30.046875 -22.453125 C 28.304688 -21.773438 26.394531 -20.867188 24.3125 -19.734375 C 22.226562 -18.609375 20.0625 -17.34375 17.8125 -15.9375 C 15.570312 -14.53125 13.347656 -13.078125 11.140625 -11.578125 C 8.929688 -10.085938 6.832031 -8.632812 4.84375 -7.21875 C 2.863281 -5.8125 1.109375 -4.550781 -0.421875 -3.4375 C -0.660156 -3.269531 -0.890625 -3.109375 -1.109375 -2.953125 C -1.335938 -2.796875 -1.5625 -2.628906 -1.78125 -2.453125 C -3.269531 -1.335938 -4.351562 -0.578125 -5.03125 -0.171875 C -5.707031 0.222656 -6.238281 0.421875 -6.625 0.421875 Z M -6.625 0.421875 "/></g></g></g><g fill="#fffaeb" fill-opacity="1"><g transform="translate(268.613075, 185.047413)"><g><path d="M 69.28125 -21.234375 C 69.800781 -21.234375 70.242188 -21.050781 70.609375 -20.6875 C 70.972656 -20.320312 71.15625 -19.878906 71.15625 -19.359375 C 71.15625 -18.691406 70.859375 -18.148438 70.265625 -17.734375 C 67.035156 -15.546875 63.65625 -13.503906 60.125 -11.609375 C 56.59375 -9.710938 53.0625 -8.003906 49.53125 -6.484375 C 46 -4.972656 42.613281 -3.6875 39.375 -2.625 C 36.144531 -1.570312 33.195312 -0.757812 30.53125 -0.1875 C 27.875 0.382812 25.644531 0.671875 23.84375 0.671875 C 20.914062 0.671875 18.675781 0.03125 17.125 -1.25 C 15.582031 -2.539062 14.8125 -4.398438 14.8125 -6.828125 C 14.8125 -8.640625 16.03125 -11.664062 18.46875 -15.90625 C 18.75 -16.394531 18.789062 -16.695312 18.59375 -16.8125 C 18.40625 -16.9375 18.117188 -16.8125 17.734375 -16.4375 C 11.546875 -10.976562 6.570312 -6.828125 2.8125 -3.984375 C -0.9375 -1.148438 -3.421875 0.265625 -4.640625 0.265625 C -5.890625 0.265625 -6.878906 -0.0625 -7.609375 -0.71875 C -8.347656 -1.382812 -8.71875 -2.289062 -8.71875 -3.4375 C -8.71875 -4.96875 -8.289062 -6.601562 -7.4375 -8.34375 C -6.582031 -10.082031 -5.425781 -11.820312 -3.96875 -13.5625 C -2.507812 -15.300781 -0.847656 -16.953125 1.015625 -18.515625 C 2.878906 -20.085938 4.84375 -21.488281 6.90625 -22.71875 C 8.976562 -23.957031 11.03125 -24.929688 13.0625 -25.640625 C 15.101562 -26.347656 17.023438 -26.703125 18.828125 -26.703125 C 20.148438 -26.703125 21.4375 -26.460938 22.6875 -25.984375 C 23.664062 -26.890625 24.675781 -27.828125 25.71875 -28.796875 C 26.757812 -29.773438 27.820312 -30.765625 28.90625 -31.765625 L 28.796875 -31.71875 C 31.859375 -36 35.238281 -40.554688 38.9375 -45.390625 C 42.644531 -50.222656 46.539062 -55.160156 50.625 -60.203125 C 54.71875 -65.242188 58.875 -70.25 63.09375 -75.21875 C 67.320312 -80.195312 71.488281 -84.972656 75.59375 -89.546875 C 79.695312 -94.117188 83.625 -98.351562 87.375 -102.25 C 91.132812 -106.144531 94.570312 -109.550781 97.6875 -112.46875 C 100.800781 -115.394531 103.476562 -117.664062 105.71875 -119.28125 C 107.96875 -120.90625 109.644531 -121.71875 110.75 -121.71875 C 113.363281 -121.71875 114.671875 -120.515625 114.671875 -118.109375 C 114.671875 -117.304688 113.957031 -115.863281 112.53125 -113.78125 C 111.101562 -111.695312 109.101562 -109.101562 106.53125 -106 C 103.957031 -102.90625 100.921875 -99.421875 97.421875 -95.546875 C 93.929688 -91.671875 90.097656 -87.53125 85.921875 -83.125 C 81.742188 -78.726562 77.359375 -74.179688 72.765625 -69.484375 C 68.179688 -64.796875 63.5 -60.078125 58.71875 -55.328125 C 53.9375 -50.578125 49.1875 -45.921875 44.46875 -41.359375 C 39.757812 -36.804688 35.195312 -32.476562 30.78125 -28.375 C 30.007812 -27.300781 29.273438 -26.25 28.578125 -25.21875 C 27.890625 -24.195312 27.210938 -23.21875 26.546875 -22.28125 C 26.828125 -21.71875 27.007812 -21.128906 27.09375 -20.515625 C 27.1875 -19.910156 27.195312 -19.316406 27.125 -18.734375 C 27.09375 -18.242188 26.894531 -17.820312 26.53125 -17.46875 C 26.164062 -17.125 25.738281 -16.953125 25.25 -16.953125 C 24.550781 -16.953125 24.03125 -17.234375 23.6875 -17.796875 C 20.28125 -12.296875 18.578125 -8.640625 18.578125 -6.828125 C 18.578125 -5.515625 18.972656 -4.5625 19.765625 -3.96875 C 20.566406 -3.375 21.925781 -3.078125 23.84375 -3.078125 C 25.507812 -3.078125 27.601562 -3.351562 30.125 -3.90625 C 32.644531 -4.46875 35.453125 -5.257812 38.546875 -6.28125 C 41.648438 -7.3125 44.882812 -8.554688 48.25 -10.015625 C 51.625 -11.472656 55.015625 -13.125 58.421875 -14.96875 C 61.835938 -16.8125 65.109375 -18.796875 68.234375 -20.921875 C 68.515625 -21.128906 68.863281 -21.234375 69.28125 -21.234375 Z M 110.75 -117.953125 C 110.019531 -117.953125 108.75 -117.265625 106.9375 -115.890625 C 105.132812 -114.515625 102.898438 -112.554688 100.234375 -110.015625 C 97.578125 -107.484375 94.585938 -104.492188 91.265625 -101.046875 C 87.941406 -97.609375 84.398438 -93.800781 80.640625 -89.625 C 76.890625 -85.445312 73.003906 -81.03125 68.984375 -76.375 C 64.972656 -71.71875 60.929688 -66.914062 56.859375 -61.96875 C 52.796875 -57.03125 48.816406 -52.078125 44.921875 -47.109375 C 47.140625 -49.265625 49.640625 -51.722656 52.421875 -54.484375 C 55.210938 -57.253906 58.171875 -60.222656 61.296875 -63.390625 C 64.429688 -66.554688 67.628906 -69.816406 70.890625 -73.171875 C 74.160156 -76.523438 77.421875 -79.878906 80.671875 -83.234375 C 83.929688 -86.585938 87.046875 -89.847656 90.015625 -93.015625 C 92.992188 -96.179688 95.757812 -99.15625 98.3125 -101.9375 C 100.863281 -104.71875 103.085938 -107.210938 104.984375 -109.421875 C 106.878906 -111.628906 108.359375 -113.445312 109.421875 -114.875 C 110.484375 -116.300781 111.015625 -117.238281 111.015625 -117.6875 C 111.015625 -117.863281 110.925781 -117.953125 110.75 -117.953125 Z M -4.4375 -3.5 C -3.664062 -3.5 -1.210938 -5.179688 2.921875 -8.546875 C 7.054688 -11.921875 12.535156 -16.722656 19.359375 -22.953125 L 18.828125 -22.953125 C 17.398438 -22.953125 15.816406 -22.640625 14.078125 -22.015625 C 12.347656 -21.390625 10.59375 -20.546875 8.8125 -19.484375 C 7.039062 -18.421875 5.335938 -17.226562 3.703125 -15.90625 C 2.066406 -14.582031 0.597656 -13.207031 -0.703125 -11.78125 C -2.003906 -10.363281 -3.035156 -8.972656 -3.796875 -7.609375 C -4.566406 -6.253906 -4.953125 -5.039062 -4.953125 -3.96875 C -4.953125 -3.65625 -4.78125 -3.5 -4.4375 -3.5 Z M -4.4375 -3.5 "/></g></g></g><g fill="#fffaeb" fill-opacity="1"><g transform="translate(323.78355, 185.047413)"><g><path d="M 74.296875 -21.1875 C 74.773438 -21.1875 75.207031 -20.992188 75.59375 -20.609375 C 75.976562 -20.222656 76.171875 -19.785156 76.171875 -19.296875 C 76.171875 -18.640625 75.890625 -18.117188 75.328125 -17.734375 C 72.691406 -15.859375 69.769531 -14.015625 66.5625 -12.203125 C 63.363281 -10.398438 60.09375 -8.722656 56.75 -7.171875 C 53.414062 -5.628906 50.15625 -4.265625 46.96875 -3.078125 C 43.789062 -1.890625 40.894531 -0.96875 38.28125 -0.3125 C 35.675781 0.34375 33.523438 0.671875 31.828125 0.671875 C 28.898438 0.671875 26.660156 0.03125 25.109375 -1.25 C 23.566406 -2.539062 22.796875 -4.398438 22.796875 -6.828125 C 22.796875 -8.816406 23.253906 -10.835938 24.171875 -12.890625 C 25.097656 -14.941406 26.15625 -16.90625 27.34375 -18.78125 C 27.613281 -19.226562 27.671875 -19.519531 27.515625 -19.65625 C 27.359375 -19.800781 27.070312 -19.71875 26.65625 -19.40625 C 26.3125 -19.164062 25.960938 -18.914062 25.609375 -18.65625 C 25.265625 -18.394531 24.898438 -18.125 24.515625 -17.84375 C 22.535156 -16.414062 20.390625 -14.875 18.078125 -13.21875 C 15.765625 -11.570312 13.414062 -9.957031 11.03125 -8.375 C 8.644531 -6.789062 6.320312 -5.347656 4.0625 -4.046875 C 1.800781 -2.742188 -0.289062 -1.695312 -2.21875 -0.90625 C -4.144531 -0.125 -5.785156 0.265625 -7.140625 0.265625 C -8.566406 0.265625 -9.710938 -0.113281 -10.578125 -0.875 C -11.453125 -1.644531 -11.890625 -2.675781 -11.890625 -3.96875 C -11.890625 -5.351562 -11.347656 -6.84375 -10.265625 -8.4375 C -9.191406 -10.039062 -7.757812 -11.660156 -5.96875 -13.296875 C -4.175781 -14.929688 -2.1875 -16.492188 0 -17.984375 C 2.1875 -19.484375 4.398438 -20.828125 6.640625 -22.015625 C 8.890625 -23.203125 11.015625 -24.132812 13.015625 -24.8125 C 15.015625 -25.488281 16.691406 -25.828125 18.046875 -25.828125 C 19.722656 -25.828125 21.070312 -25.570312 22.09375 -25.0625 C 23.113281 -24.5625 23.972656 -23.738281 24.671875 -22.59375 C 26.660156 -24.019531 28.21875 -25.125 29.34375 -25.90625 C 30.476562 -26.6875 31.359375 -27.222656 31.984375 -27.515625 C 32.609375 -27.816406 33.113281 -27.96875 33.5 -27.96875 C 34.125 -27.96875 34.648438 -27.753906 35.078125 -27.328125 C 35.515625 -26.910156 35.734375 -26.390625 35.734375 -25.765625 C 35.734375 -25.179688 35.488281 -24.476562 35 -23.65625 C 34.519531 -22.84375 33.859375 -21.828125 33.015625 -20.609375 C 32.117188 -19.285156 31.164062 -17.832031 30.15625 -16.25 C 29.144531 -14.664062 28.289062 -13.066406 27.59375 -11.453125 C 26.894531 -9.835938 26.546875 -8.296875 26.546875 -6.828125 C 26.546875 -5.515625 26.953125 -4.5625 27.765625 -3.96875 C 28.585938 -3.375 29.941406 -3.078125 31.828125 -3.078125 C 33.285156 -3.078125 35.210938 -3.375 37.609375 -3.96875 C 40.015625 -4.5625 42.710938 -5.394531 45.703125 -6.46875 C 48.691406 -7.550781 51.796875 -8.828125 55.015625 -10.296875 C 58.234375 -11.773438 61.40625 -13.398438 64.53125 -15.171875 C 67.664062 -16.953125 70.550781 -18.832031 73.1875 -20.8125 C 73.46875 -21.0625 73.835938 -21.1875 74.296875 -21.1875 Z M 21.59375 -20.390625 C 21.21875 -21.085938 20.800781 -21.539062 20.34375 -21.75 C 19.894531 -21.957031 19.128906 -22.0625 18.046875 -22.0625 C 16.765625 -22.0625 15.226562 -21.738281 13.4375 -21.09375 C 11.644531 -20.457031 9.765625 -19.609375 7.796875 -18.546875 C 5.835938 -17.484375 3.914062 -16.304688 2.03125 -15.015625 C 0.15625 -13.734375 -1.546875 -12.429688 -3.078125 -11.109375 C -4.609375 -9.785156 -5.832031 -8.53125 -6.75 -7.34375 C -7.675781 -6.164062 -8.140625 -5.175781 -8.140625 -4.375 C -8.140625 -3.789062 -7.804688 -3.5 -7.140625 -3.5 C -5.472656 -3.5 -3.222656 -4.242188 -0.390625 -5.734375 C 2.441406 -7.234375 5.726562 -9.257812 9.46875 -11.8125 C 13.207031 -14.375 17.25 -17.234375 21.59375 -20.390625 Z M 21.59375 -20.390625 "/></g></g></g><g fill="#fffaeb" fill-opacity="1"><g transform="translate(384.01458, 185.047413)"><g><path d="M -6.625 0.421875 C -7.425781 0.421875 -8.050781 0.125 -8.5 -0.46875 C -8.957031 -1.0625 -9.097656 -1.773438 -8.921875 -2.609375 C -8.816406 -3.160156 -8.328125 -4.125 -7.453125 -5.5 C -6.585938 -6.875 -5.429688 -8.539062 -3.984375 -10.5 C -2.546875 -12.46875 -0.890625 -14.597656 0.984375 -16.890625 C 2.867188 -19.191406 4.894531 -21.523438 7.0625 -23.890625 C 9.238281 -26.253906 11.484375 -28.53125 13.796875 -30.71875 C 16.109375 -32.914062 18.414062 -34.882812 20.71875 -36.625 C 21.09375 -36.863281 21.472656 -36.984375 21.859375 -36.984375 C 22.378906 -36.984375 22.820312 -36.800781 23.1875 -36.4375 C 23.550781 -36.070312 23.734375 -35.628906 23.734375 -35.109375 C 23.734375 -34.484375 23.488281 -33.976562 23 -33.59375 C 20.632812 -31.820312 18.28125 -29.820312 15.9375 -27.59375 C 13.59375 -25.375 11.347656 -23.097656 9.203125 -20.765625 C 7.066406 -18.429688 5.132812 -16.210938 3.40625 -14.109375 C 1.6875 -12.003906 0.273438 -10.1875 -0.828125 -8.65625 C -1.035156 -8.382812 -1.085938 -8.175781 -0.984375 -8.03125 C -0.878906 -7.894531 -0.640625 -7.945312 -0.265625 -8.1875 C 5.890625 -12.601562 11.203125 -16.210938 15.671875 -19.015625 C 20.140625 -21.816406 23.929688 -23.882812 27.046875 -25.21875 C 30.160156 -26.5625 32.691406 -27.234375 34.640625 -27.234375 C 35.992188 -27.234375 37.0625 -26.894531 37.84375 -26.21875 C 38.625 -25.539062 39.015625 -24.59375 39.015625 -23.375 C 39.015625 -22.289062 38.820312 -20.863281 38.4375 -19.09375 C 38.0625 -17.320312 37.664062 -15.566406 37.25 -13.828125 C 36.90625 -12.328125 36.59375 -10.957031 36.3125 -9.71875 C 36.03125 -8.488281 35.890625 -7.613281 35.890625 -7.09375 C 35.890625 -6.601562 36.035156 -6.253906 36.328125 -6.046875 C 36.628906 -5.835938 37.160156 -5.734375 37.921875 -5.734375 C 39.910156 -5.734375 42.242188 -6.085938 44.921875 -6.796875 C 47.597656 -7.515625 50.523438 -8.535156 53.703125 -9.859375 C 56.890625 -11.179688 60.210938 -12.769531 63.671875 -14.625 C 67.128906 -16.488281 70.597656 -18.570312 74.078125 -20.875 C 74.390625 -21.082031 74.738281 -21.1875 75.125 -21.1875 C 75.644531 -21.1875 76.085938 -21 76.453125 -20.625 C 76.816406 -20.257812 77 -19.816406 77 -19.296875 C 77 -18.566406 76.703125 -18.046875 76.109375 -17.734375 C 72.460938 -15.335938 68.828125 -13.164062 65.203125 -11.21875 C 61.585938 -9.269531 58.109375 -7.609375 54.765625 -6.234375 C 51.429688 -4.859375 48.328125 -3.804688 45.453125 -3.078125 C 42.585938 -2.347656 40.078125 -1.984375 37.921875 -1.984375 C 36.117188 -1.984375 34.703125 -2.429688 33.671875 -3.328125 C 32.648438 -4.234375 32.140625 -5.488281 32.140625 -7.09375 C 32.140625 -7.820312 32.296875 -8.890625 32.609375 -10.296875 C 32.921875 -11.710938 33.25 -13.1875 33.59375 -14.71875 C 34.007812 -16.445312 34.390625 -18.085938 34.734375 -19.640625 C 35.085938 -21.191406 35.265625 -22.191406 35.265625 -22.640625 C 35.265625 -23.191406 34.988281 -23.46875 34.4375 -23.46875 C 33.25 -23.46875 31.785156 -23.128906 30.046875 -22.453125 C 28.304688 -21.773438 26.394531 -20.867188 24.3125 -19.734375 C 22.226562 -18.609375 20.0625 -17.34375 17.8125 -15.9375 C 15.570312 -14.53125 13.347656 -13.078125 11.140625 -11.578125 C 8.929688 -10.085938 6.832031 -8.632812 4.84375 -7.21875 C 2.863281 -5.8125 1.109375 -4.550781 -0.421875 -3.4375 C -0.660156 -3.269531 -0.890625 -3.109375 -1.109375 -2.953125 C -1.335938 -2.796875 -1.5625 -2.628906 -1.78125 -2.453125 C -3.269531 -1.335938 -4.351562 -0.578125 -5.03125 -0.171875 C -5.707031 0.222656 -6.238281 0.421875 -6.625 0.421875 Z M -6.625 0.421875 "/></g></g></g><g fill="#fffaeb" fill-opacity="1"><g transform="translate(445.028135, 185.047413)"><g><path d="M 74.296875 -21.1875 C 74.773438 -21.1875 75.207031 -20.992188 75.59375 -20.609375 C 75.976562 -20.222656 76.171875 -19.785156 76.171875 -19.296875 C 76.171875 -18.640625 75.890625 -18.117188 75.328125 -17.734375 C 72.691406 -15.859375 69.769531 -14.015625 66.5625 -12.203125 C 63.363281 -10.398438 60.09375 -8.722656 56.75 -7.171875 C 53.414062 -5.628906 50.15625 -4.265625 46.96875 -3.078125 C 43.789062 -1.890625 40.894531 -0.96875 38.28125 -0.3125 C 35.675781 0.34375 33.523438 0.671875 31.828125 0.671875 C 28.898438 0.671875 26.660156 0.03125 25.109375 -1.25 C 23.566406 -2.539062 22.796875 -4.398438 22.796875 -6.828125 C 22.796875 -8.816406 23.253906 -10.835938 24.171875 -12.890625 C 25.097656 -14.941406 26.15625 -16.90625 27.34375 -18.78125 C 27.613281 -19.226562 27.671875 -19.519531 27.515625 -19.65625 C 27.359375 -19.800781 27.070312 -19.71875 26.65625 -19.40625 C 26.3125 -19.164062 25.960938 -18.914062 25.609375 -18.65625 C 25.265625 -18.394531 24.898438 -18.125 24.515625 -17.84375 C 22.535156 -16.414062 20.390625 -14.875 18.078125 -13.21875 C 15.765625 -11.570312 13.414062 -9.957031 11.03125 -8.375 C 8.644531 -6.789062 6.320312 -5.347656 4.0625 -4.046875 C 1.800781 -2.742188 -0.289062 -1.695312 -2.21875 -0.90625 C -4.144531 -0.125 -5.785156 0.265625 -7.140625 0.265625 C -8.566406 0.265625 -9.710938 -0.113281 -10.578125 -0.875 C -11.453125 -1.644531 -11.890625 -2.675781 -11.890625 -3.96875 C -11.890625 -5.351562 -11.347656 -6.84375 -10.265625 -8.4375 C -9.191406 -10.039062 -7.757812 -11.660156 -5.96875 -13.296875 C -4.175781 -14.929688 -2.1875 -16.492188 0 -17.984375 C 2.1875 -19.484375 4.398438 -20.828125 6.640625 -22.015625 C 8.890625 -23.203125 11.015625 -24.132812 13.015625 -24.8125 C 15.015625 -25.488281 16.691406 -25.828125 18.046875 -25.828125 C 19.722656 -25.828125 21.070312 -25.570312 22.09375 -25.0625 C 23.113281 -24.5625 23.972656 -23.738281 24.671875 -22.59375 C 26.660156 -24.019531 28.21875 -25.125 29.34375 -25.90625 C 30.476562 -26.6875 31.359375 -27.222656 31.984375 -27.515625 C 32.609375 -27.816406 33.113281 -27.96875 33.5 -27.96875 C 34.125 -27.96875 34.648438 -27.753906 35.078125 -27.328125 C 35.515625 -26.910156 35.734375 -26.390625 35.734375 -25.765625 C 35.734375 -25.179688 35.488281 -24.476562 35 -23.65625 C 34.519531 -22.84375 33.859375 -21.828125 33.015625 -20.609375 C 32.117188 -19.285156 31.164062 -17.832031 30.15625 -16.25 C 29.144531 -14.664062 28.289062 -13.066406 27.59375 -11.453125 C 26.894531 -9.835938 26.546875 -8.296875 26.546875 -6.828125 C 26.546875 -5.515625 26.953125 -4.5625 27.765625 -3.96875 C 28.585938 -3.375 29.941406 -3.078125 31.828125 -3.078125 C 33.285156 -3.078125 35.210938 -3.375 37.609375 -3.96875 C 40.015625 -4.5625 42.710938 -5.394531 45.703125 -6.46875 C 48.691406 -7.550781 51.796875 -8.828125 55.015625 -10.296875 C 58.234375 -11.773438 61.40625 -13.398438 64.53125 -15.171875 C 67.664062 -16.953125 70.550781 -18.832031 73.1875 -20.8125 C 73.46875 -21.0625 73.835938 -21.1875 74.296875 -21.1875 Z M 21.59375 -20.390625 C 21.21875 -21.085938 20.800781 -21.539062 20.34375 -21.75 C 19.894531 -21.957031 19.128906 -22.0625 18.046875 -22.0625 C 16.765625 -22.0625 15.226562 -21.738281 13.4375 -21.09375 C 11.644531 -20.457031 9.765625 -19.609375 7.796875 -18.546875 C 5.835938 -17.484375 3.914062 -16.304688 2.03125 -15.015625 C 0.15625 -13.734375 -1.546875 -12.429688 -3.078125 -11.109375 C -4.609375 -9.785156 -5.832031 -8.53125 -6.75 -7.34375 C -7.675781 -6.164062 -8.140625 -5.175781 -8.140625 -4.375 C -8.140625 -3.789062 -7.804688 -3.5 -7.140625 -3.5 C -5.472656 -3.5 -3.222656 -4.242188 -0.390625 -5.734375 C 2.441406 -7.234375 5.726562 -9.257812 9.46875 -11.8125 C 13.207031 -14.375 17.25 -17.234375 21.59375 -20.390625 Z M 21.59375 -20.390625 "/></g></g></g><g fill="#fffaeb" fill-opacity="1"><g transform="translate(505.259165, 185.047413)"><g/></g></g><g fill="#fffaeb" fill-opacity="1"><g transform="translate(548.691231, 185.047413)"><g><path d="M 82.953125 -81.171875 C 90.078125 -81.171875 95.578125 -79.679688 99.453125 -76.703125 C 103.335938 -73.734375 105.28125 -69.519531 105.28125 -64.0625 C 105.28125 -60.832031 104.632812 -57.519531 103.34375 -54.125 C 102.0625 -50.738281 100.238281 -47.375 97.875 -44.03125 C 95.507812 -40.6875 92.691406 -37.46875 89.421875 -34.375 C 86.148438 -31.28125 82.515625 -28.421875 78.515625 -25.796875 C 74.515625 -23.171875 70.234375 -20.882812 65.671875 -18.9375 C 61.117188 -16.988281 56.363281 -15.46875 51.40625 -14.375 C 46.457031 -13.28125 41.425781 -12.734375 36.3125 -12.734375 C 34.4375 -12.734375 32.550781 -12.867188 30.65625 -13.140625 C 28.757812 -13.421875 26.921875 -13.804688 25.140625 -14.296875 C 25.109375 -14.328125 25.097656 -14.351562 25.109375 -14.375 C 25.128906 -14.394531 25.109375 -14.351562 25.046875 -14.25 C 20.941406 -8.644531 17.671875 -3.898438 15.234375 -0.015625 C 12.796875 3.859375 11.070312 7.097656 10.0625 9.703125 C 10.582031 10.046875 10.757812 10.65625 10.59375 11.53125 C 10.03125 14.625 9.195312 16.34375 8.09375 16.6875 C 7.53125 16.894531 6.976562 16.878906 6.4375 16.640625 C 5.90625 16.398438 5.550781 16 5.375 15.4375 C 5.164062 14.78125 5.21875 13.648438 5.53125 12.046875 C 6.050781 9.367188 7.613281 5.757812 10.21875 1.21875 C 12.832031 -3.3125 16.554688 -8.9375 21.390625 -15.65625 C 17.210938 -17.351562 14.359375 -19.59375 12.828125 -22.375 C 12.691406 -22.625 12.625 -22.921875 12.625 -23.265625 C 12.625 -23.785156 12.804688 -24.226562 13.171875 -24.59375 C 13.535156 -24.957031 13.976562 -25.140625 14.5 -25.140625 C 15.269531 -25.140625 15.828125 -24.796875 16.171875 -24.109375 C 17.285156 -22.015625 19.753906 -20.238281 23.578125 -18.78125 C 23.679688 -18.78125 23.734375 -18.796875 23.734375 -18.828125 C 26.347656 -22.347656 29.175781 -25.941406 32.21875 -29.609375 C 35.257812 -33.273438 38.414062 -36.890625 41.6875 -40.453125 C 44.957031 -44.023438 48.257812 -47.453125 51.59375 -50.734375 C 54.9375 -54.023438 58.222656 -57.023438 61.453125 -59.734375 C 61.765625 -60.046875 62.164062 -60.203125 62.65625 -60.203125 C 63.175781 -60.203125 63.617188 -60.019531 63.984375 -59.65625 C 64.347656 -59.289062 64.53125 -58.847656 64.53125 -58.328125 C 64.53125 -57.734375 64.304688 -57.242188 63.859375 -56.859375 C 60.796875 -54.285156 57.671875 -51.429688 54.484375 -48.296875 C 51.304688 -45.171875 48.132812 -41.894531 44.96875 -38.46875 C 41.800781 -35.050781 38.738281 -31.566406 35.78125 -28.015625 C 32.832031 -24.460938 30.070312 -20.984375 27.5 -17.578125 C 28.882812 -17.234375 30.332031 -16.960938 31.84375 -16.765625 C 33.363281 -16.578125 34.851562 -16.484375 36.3125 -16.484375 C 42.082031 -16.484375 47.679688 -17.160156 53.109375 -18.515625 C 58.535156 -19.878906 63.679688 -21.757812 68.546875 -24.15625 C 73.421875 -26.550781 77.863281 -29.304688 81.875 -32.421875 C 85.894531 -35.535156 89.375 -38.875 92.3125 -42.4375 C 95.25 -46 97.515625 -49.625 99.109375 -53.3125 C 100.710938 -57 101.515625 -60.582031 101.515625 -64.0625 C 101.515625 -68.40625 99.941406 -71.71875 96.796875 -74 C 93.648438 -76.28125 89.035156 -77.421875 82.953125 -77.421875 C 78.984375 -77.421875 74.832031 -76.992188 70.5 -76.140625 C 66.175781 -75.285156 61.820312 -74.078125 57.4375 -72.515625 C 53.050781 -70.953125 48.742188 -69.09375 44.515625 -66.9375 C 40.296875 -64.78125 36.28125 -62.390625 32.46875 -59.765625 C 28.664062 -57.140625 25.1875 -54.347656 22.03125 -51.390625 C 18.882812 -48.429688 16.179688 -45.351562 13.921875 -42.15625 C 13.546875 -41.59375 13.023438 -41.3125 12.359375 -41.3125 C 11.835938 -41.3125 11.394531 -41.492188 11.03125 -41.859375 C 10.664062 -42.222656 10.484375 -42.671875 10.484375 -43.203125 C 10.484375 -43.648438 10.601562 -44.015625 10.84375 -44.296875 C 13.21875 -47.628906 16.046875 -50.851562 19.328125 -53.96875 C 22.617188 -57.082031 26.253906 -60.007812 30.234375 -62.75 C 34.210938 -65.5 38.398438 -68.003906 42.796875 -70.265625 C 47.203125 -72.523438 51.691406 -74.460938 56.265625 -76.078125 C 60.835938 -77.703125 65.382812 -78.957031 69.90625 -79.84375 C 74.425781 -80.726562 78.773438 -81.171875 82.953125 -81.171875 Z M 82.953125 -81.171875 "/></g></g></g><g fill="#fffaeb" fill-opacity="1"><g transform="translate(621.495381, 185.047413)"><g><path d="M 70.265625 -21.34375 C 70.753906 -21.34375 71.191406 -21.148438 71.578125 -20.765625 C 71.960938 -20.378906 72.15625 -19.941406 72.15625 -19.453125 C 72.15625 -18.796875 71.875 -18.273438 71.3125 -17.890625 C 69.332031 -16.535156 67.082031 -15.132812 64.5625 -13.6875 C 62.039062 -12.25 59.390625 -10.84375 56.609375 -9.46875 C 53.828125 -8.09375 51.035156 -6.804688 48.234375 -5.609375 C 45.429688 -4.410156 42.734375 -3.347656 40.140625 -2.421875 C 37.554688 -1.503906 35.203125 -0.785156 33.078125 -0.265625 C 30.953125 0.253906 29.175781 0.515625 27.75 0.515625 C 24.832031 0.515625 22.597656 -0.125 21.046875 -1.40625 C 19.503906 -2.695312 18.734375 -4.554688 18.734375 -6.984375 C 18.734375 -8.242188 18.957031 -9.5 19.40625 -10.75 C 19.851562 -12 20.566406 -13.40625 21.546875 -14.96875 C 21.828125 -15.457031 21.90625 -15.757812 21.78125 -15.875 C 21.65625 -16 21.40625 -15.90625 21.03125 -15.59375 C 19.769531 -14.582031 18.320312 -13.453125 16.6875 -12.203125 C 15.0625 -10.953125 13.359375 -9.691406 11.578125 -8.421875 C 9.804688 -7.148438 8.078125 -5.972656 6.390625 -4.890625 C 4.703125 -3.816406 3.160156 -2.957031 1.765625 -2.3125 C 0.378906 -1.675781 -0.726562 -1.359375 -1.5625 -1.359375 C -2.8125 -1.359375 -3.8125 -1.726562 -4.5625 -2.46875 C -5.3125 -3.21875 -5.6875 -4.238281 -5.6875 -5.53125 C -5.6875 -7.6875 -4.492188 -10.390625 -2.109375 -13.640625 C 0.265625 -16.890625 3.679688 -20.5 8.140625 -24.46875 C 8.484375 -24.8125 8.898438 -24.984375 9.390625 -24.984375 C 9.878906 -24.984375 10.3125 -24.789062 10.6875 -24.40625 C 11.070312 -24.03125 11.265625 -23.597656 11.265625 -23.109375 C 11.265625 -22.453125 11.039062 -21.984375 10.59375 -21.703125 L 10.640625 -21.75 C 6.742188 -18.207031 3.671875 -15.023438 1.421875 -12.203125 C -0.816406 -9.390625 -1.9375 -7.269531 -1.9375 -5.84375 C -1.9375 -5.5625 -1.875 -5.367188 -1.75 -5.265625 C -1.625 -5.160156 -1.492188 -5.109375 -1.359375 -5.109375 C -0.109375 -5.109375 2.226562 -6.265625 5.65625 -8.578125 C 9.082031 -10.890625 13.769531 -14.445312 19.71875 -19.25 C 22.257812 -21.300781 24.335938 -22.976562 25.953125 -24.28125 C 27.566406 -25.582031 28.851562 -26.546875 29.8125 -27.171875 C 30.769531 -27.804688 31.507812 -28.125 32.03125 -28.125 C 33.695312 -28.125 34.453125 -27.53125 34.296875 -26.34375 C 34.140625 -25.164062 33.035156 -23.425781 30.984375 -21.125 C 30.117188 -20.15625 29.1875 -19.085938 28.1875 -17.921875 C 27.195312 -16.753906 26.269531 -15.546875 25.40625 -14.296875 C 24.539062 -13.046875 23.835938 -11.789062 23.296875 -10.53125 C 22.753906 -9.28125 22.484375 -8.097656 22.484375 -6.984375 C 22.484375 -5.671875 22.890625 -4.71875 23.703125 -4.125 C 24.523438 -3.53125 25.875 -3.234375 27.75 -3.234375 C 28.96875 -3.234375 30.550781 -3.472656 32.5 -3.953125 C 34.445312 -4.441406 36.628906 -5.113281 39.046875 -5.96875 C 41.460938 -6.820312 44 -7.820312 46.65625 -8.96875 C 49.320312 -10.113281 51.992188 -11.347656 54.671875 -12.671875 C 57.347656 -13.992188 59.929688 -15.359375 62.421875 -16.765625 C 64.910156 -18.179688 67.160156 -19.582031 69.171875 -20.96875 C 69.453125 -21.21875 69.816406 -21.34375 70.265625 -21.34375 Z M 70.265625 -21.34375 "/></g></g></g><g fill="#fffaeb" fill-opacity="1"><g transform="translate(677.60489, 185.047413)"><g><path d="M 67.984375 -21.1875 C 68.460938 -21.1875 68.894531 -20.992188 69.28125 -20.609375 C 69.664062 -20.222656 69.859375 -19.785156 69.859375 -19.296875 C 69.859375 -18.640625 69.578125 -18.117188 69.015625 -17.734375 C 66.128906 -15.828125 63.035156 -14.1875 59.734375 -12.8125 C 56.429688 -11.4375 53.019531 -10.28125 49.5 -9.34375 C 45.988281 -8.40625 42.484375 -7.628906 38.984375 -7.015625 C 35.492188 -6.410156 32.128906 -5.90625 28.890625 -5.5 C 25.660156 -5.101562 22.65625 -4.765625 19.875 -4.484375 C 17.332031 -3.679688 15.164062 -3.003906 13.375 -2.453125 C 11.582031 -1.898438 10.0625 -1.625 8.8125 -1.625 C 7.945312 -1.625 7.242188 -1.820312 6.703125 -2.21875 C 6.160156 -2.613281 5.890625 -3.144531 5.890625 -3.8125 C 5.890625 -4.539062 6.226562 -5.222656 6.90625 -5.859375 C 7.59375 -6.503906 8.847656 -7.035156 10.671875 -7.453125 C 12.492188 -7.878906 15.144531 -8.109375 18.625 -8.140625 C 21.164062 -9.734375 23.453125 -11.398438 25.484375 -13.140625 C 27.515625 -14.878906 29.140625 -16.492188 30.359375 -17.984375 C 31.578125 -19.484375 32.1875 -20.65625 32.1875 -21.5 C 32.1875 -21.945312 31.890625 -22.171875 31.296875 -22.171875 C 29.492188 -22.171875 27.207031 -21.484375 24.4375 -20.109375 C 21.675781 -18.734375 18.585938 -16.800781 15.171875 -14.3125 C 11.765625 -11.832031 8.203125 -8.894531 4.484375 -5.5 C 0.765625 -2.113281 -2.953125 1.613281 -6.671875 5.6875 C -14.847656 14.59375 -22.300781 22.832031 -29.03125 30.40625 C -35.757812 37.988281 -41.835938 44.894531 -47.265625 51.125 C -48.273438 52.445312 -49.265625 53.742188 -50.234375 55.015625 C -51.210938 56.285156 -52.171875 57.53125 -53.109375 58.75 L -60.359375 68.234375 C -64.429688 73.523438 -67.875 78.003906 -70.6875 81.671875 C -73.507812 85.335938 -75.84375 88.300781 -77.6875 90.5625 C -79.53125 92.820312 -81.003906 94.460938 -82.109375 95.484375 C -83.222656 96.515625 -84.09375 97.03125 -84.71875 97.03125 C -87.46875 97.03125 -85.878906 92.976562 -79.953125 84.875 C -74.023438 76.769531 -63.929688 64.507812 -49.671875 48.09375 C -41.460938 37.414062 -31.648438 24.804688 -20.234375 10.265625 C -8.828125 -4.265625 4.382812 -20.832031 19.40625 -39.4375 C 19.71875 -39.925781 20.207031 -40.171875 20.875 -40.171875 C 21.351562 -40.171875 21.785156 -39.976562 22.171875 -39.59375 C 22.554688 -39.207031 22.75 -38.773438 22.75 -38.296875 C 22.75 -37.804688 22.59375 -37.40625 22.28125 -37.09375 L 22.328125 -37.140625 C 19.054688 -33.109375 15.851562 -29.144531 12.71875 -25.25 C 9.59375 -21.351562 6.445312 -17.421875 3.28125 -13.453125 C 0.125 -9.492188 -3.125 -5.410156 -6.46875 -1.203125 C -9.8125 3.003906 -13.320312 7.421875 -17 12.046875 L -9.390625 3.078125 C -5.460938 -1.234375 -1.535156 -5.160156 2.390625 -8.703125 C 6.328125 -12.253906 10.113281 -15.304688 13.75 -17.859375 C 17.382812 -20.421875 20.722656 -22.390625 23.765625 -23.765625 C 26.804688 -25.140625 29.421875 -25.828125 31.609375 -25.828125 C 32.929688 -25.828125 33.984375 -25.488281 34.765625 -24.8125 C 35.546875 -24.132812 35.9375 -23.21875 35.9375 -22.0625 C 35.9375 -20.363281 35.078125 -18.347656 33.359375 -16.015625 C 31.640625 -13.679688 29.285156 -11.332031 26.296875 -8.96875 C 29.566406 -9.351562 32.972656 -9.832031 36.515625 -10.40625 C 40.066406 -10.976562 43.625 -11.71875 47.1875 -12.625 C 50.75 -13.53125 54.207031 -14.644531 57.5625 -15.96875 C 60.925781 -17.289062 64.03125 -18.90625 66.875 -20.8125 C 67.257812 -21.0625 67.628906 -21.1875 67.984375 -21.1875 Z M 67.984375 -21.1875 "/></g></g></g><g fill="#fffaeb" fill-opacity="1"><g transform="translate(731.523222, 185.047413)"><g><path d="M 67.984375 -21.1875 C 68.460938 -21.1875 68.894531 -20.992188 69.28125 -20.609375 C 69.664062 -20.222656 69.859375 -19.785156 69.859375 -19.296875 C 69.859375 -18.640625 69.578125 -18.117188 69.015625 -17.734375 C 66.128906 -15.828125 63.035156 -14.1875 59.734375 -12.8125 C 56.429688 -11.4375 53.019531 -10.28125 49.5 -9.34375 C 45.988281 -8.40625 42.484375 -7.628906 38.984375 -7.015625 C 35.492188 -6.410156 32.128906 -5.90625 28.890625 -5.5 C 25.660156 -5.101562 22.65625 -4.765625 19.875 -4.484375 C 17.332031 -3.679688 15.164062 -3.003906 13.375 -2.453125 C 11.582031 -1.898438 10.0625 -1.625 8.8125 -1.625 C 7.945312 -1.625 7.242188 -1.820312 6.703125 -2.21875 C 6.160156 -2.613281 5.890625 -3.144531 5.890625 -3.8125 C 5.890625 -4.539062 6.226562 -5.222656 6.90625 -5.859375 C 7.59375 -6.503906 8.847656 -7.035156 10.671875 -7.453125 C 12.492188 -7.878906 15.144531 -8.109375 18.625 -8.140625 C 21.164062 -9.734375 23.453125 -11.398438 25.484375 -13.140625 C 27.515625 -14.878906 29.140625 -16.492188 30.359375 -17.984375 C 31.578125 -19.484375 32.1875 -20.65625 32.1875 -21.5 C 32.1875 -21.945312 31.890625 -22.171875 31.296875 -22.171875 C 29.492188 -22.171875 27.207031 -21.484375 24.4375 -20.109375 C 21.675781 -18.734375 18.585938 -16.800781 15.171875 -14.3125 C 11.765625 -11.832031 8.203125 -8.894531 4.484375 -5.5 C 0.765625 -2.113281 -2.953125 1.613281 -6.671875 5.6875 C -14.847656 14.59375 -22.300781 22.832031 -29.03125 30.40625 C -35.757812 37.988281 -41.835938 44.894531 -47.265625 51.125 C -48.273438 52.445312 -49.265625 53.742188 -50.234375 55.015625 C -51.210938 56.285156 -52.171875 57.53125 -53.109375 58.75 L -60.359375 68.234375 C -64.429688 73.523438 -67.875 78.003906 -70.6875 81.671875 C -73.507812 85.335938 -75.84375 88.300781 -77.6875 90.5625 C -79.53125 92.820312 -81.003906 94.460938 -82.109375 95.484375 C -83.222656 96.515625 -84.09375 97.03125 -84.71875 97.03125 C -87.46875 97.03125 -85.878906 92.976562 -79.953125 84.875 C -74.023438 76.769531 -63.929688 64.507812 -49.671875 48.09375 C -41.460938 37.414062 -31.648438 24.804688 -20.234375 10.265625 C -8.828125 -4.265625 4.382812 -20.832031 19.40625 -39.4375 C 19.71875 -39.925781 20.207031 -40.171875 20.875 -40.171875 C 21.351562 -40.171875 21.785156 -39.976562 22.171875 -39.59375 C 22.554688 -39.207031 22.75 -38.773438 22.75 -38.296875 C 22.75 -37.804688 22.59375 -37.40625 22.28125 -37.09375 L 22.328125 -37.140625 C 19.054688 -33.109375 15.851562 -29.144531 12.71875 -25.25 C 9.59375 -21.351562 6.445312 -17.421875 3.28125 -13.453125 C 0.125 -9.492188 -3.125 -5.410156 -6.46875 -1.203125 C -9.8125 3.003906 -13.320312 7.421875 -17 12.046875 L -9.390625 3.078125 C -5.460938 -1.234375 -1.535156 -5.160156 2.390625 -8.703125 C 6.328125 -12.253906 10.113281 -15.304688 13.75 -17.859375 C 17.382812 -20.421875 20.722656 -22.390625 23.765625 -23.765625 C 26.804688 -25.140625 29.421875 -25.828125 31.609375 -25.828125 C 32.929688 -25.828125 33.984375 -25.488281 34.765625 -24.8125 C 35.546875 -24.132812 35.9375 -23.21875 35.9375 -22.0625 C 35.9375 -20.363281 35.078125 -18.347656 33.359375 -16.015625 C 31.640625 -13.679688 29.285156 -11.332031 26.296875 -8.96875 C 29.566406 -9.351562 32.972656 -9.832031 36.515625 -10.40625 C 40.066406 -10.976562 43.625 -11.71875 47.1875 -12.625 C 50.75 -13.53125 54.207031 -14.644531 57.5625 -15.96875 C 60.925781 -17.289062 64.03125 -18.90625 66.875 -20.8125 C 67.257812 -21.0625 67.628906 -21.1875 67.984375 -21.1875 Z M 67.984375 -21.1875 "/></g></g></g><g fill="#fffaeb" fill-opacity="1"><g transform="translate(785.441554, 185.047413)"><g><path d="M 74.296875 -21.1875 C 74.773438 -21.1875 75.207031 -20.992188 75.59375 -20.609375 C 75.976562 -20.222656 76.171875 -19.785156 76.171875 -19.296875 C 76.171875 -18.640625 75.890625 -18.117188 75.328125 -17.734375 C 72.691406 -15.859375 69.769531 -14.015625 66.5625 -12.203125 C 63.363281 -10.398438 60.09375 -8.722656 56.75 -7.171875 C 53.414062 -5.628906 50.15625 -4.265625 46.96875 -3.078125 C 43.789062 -1.890625 40.894531 -0.96875 38.28125 -0.3125 C 35.675781 0.34375 33.523438 0.671875 31.828125 0.671875 C 28.898438 0.671875 26.660156 0.03125 25.109375 -1.25 C 23.566406 -2.539062 22.796875 -4.398438 22.796875 -6.828125 C 22.796875 -8.816406 23.253906 -10.835938 24.171875 -12.890625 C 25.097656 -14.941406 26.15625 -16.90625 27.34375 -18.78125 C 27.613281 -19.226562 27.671875 -19.519531 27.515625 -19.65625 C 27.359375 -19.800781 27.070312 -19.71875 26.65625 -19.40625 C 26.3125 -19.164062 25.960938 -18.914062 25.609375 -18.65625 C 25.265625 -18.394531 24.898438 -18.125 24.515625 -17.84375 C 22.535156 -16.414062 20.390625 -14.875 18.078125 -13.21875 C 15.765625 -11.570312 13.414062 -9.957031 11.03125 -8.375 C 8.644531 -6.789062 6.320312 -5.347656 4.0625 -4.046875 C 1.800781 -2.742188 -0.289062 -1.695312 -2.21875 -0.90625 C -4.144531 -0.125 -5.785156 0.265625 -7.140625 0.265625 C -8.566406 0.265625 -9.710938 -0.113281 -10.578125 -0.875 C -11.453125 -1.644531 -11.890625 -2.675781 -11.890625 -3.96875 C -11.890625 -5.351562 -11.347656 -6.84375 -10.265625 -8.4375 C -9.191406 -10.039062 -7.757812 -11.660156 -5.96875 -13.296875 C -4.175781 -14.929688 -2.1875 -16.492188 0 -17.984375 C 2.1875 -19.484375 4.398438 -20.828125 6.640625 -22.015625 C 8.890625 -23.203125 11.015625 -24.132812 13.015625 -24.8125 C 15.015625 -25.488281 16.691406 -25.828125 18.046875 -25.828125 C 19.722656 -25.828125 21.070312 -25.570312 22.09375 -25.0625 C 23.113281 -24.5625 23.972656 -23.738281 24.671875 -22.59375 C 26.660156 -24.019531 28.21875 -25.125 29.34375 -25.90625 C 30.476562 -26.6875 31.359375 -27.222656 31.984375 -27.515625 C 32.609375 -27.816406 33.113281 -27.96875 33.5 -27.96875 C 34.125 -27.96875 34.648438 -27.753906 35.078125 -27.328125 C 35.515625 -26.910156 35.734375 -26.390625 35.734375 -25.765625 C 35.734375 -25.179688 35.488281 -24.476562 35 -23.65625 C 34.519531 -22.84375 33.859375 -21.828125 33.015625 -20.609375 C 32.117188 -19.285156 31.164062 -17.832031 30.15625 -16.25 C 29.144531 -14.664062 28.289062 -13.066406 27.59375 -11.453125 C 26.894531 -9.835938 26.546875 -8.296875 26.546875 -6.828125 C 26.546875 -5.515625 26.953125 -4.5625 27.765625 -3.96875 C 28.585938 -3.375 29.941406 -3.078125 31.828125 -3.078125 C 33.285156 -3.078125 35.210938 -3.375 37.609375 -3.96875 C 40.015625 -4.5625 42.710938 -5.394531 45.703125 -6.46875 C 48.691406 -7.550781 51.796875 -8.828125 55.015625 -10.296875 C 58.234375 -11.773438 61.40625 -13.398438 64.53125 -15.171875 C 67.664062 -16.953125 70.550781 -18.832031 73.1875 -20.8125 C 73.46875 -21.0625 73.835938 -21.1875 74.296875 -21.1875 Z M 21.59375 -20.390625 C 21.21875 -21.085938 20.800781 -21.539062 20.34375 -21.75 C 19.894531 -21.957031 19.128906 -22.0625 18.046875 -22.0625 C 16.765625 -22.0625 15.226562 -21.738281 13.4375 -21.09375 C 11.644531 -20.457031 9.765625 -19.609375 7.796875 -18.546875 C 5.835938 -17.484375 3.914062 -16.304688 2.03125 -15.015625 C 0.15625 -13.734375 -1.546875 -12.429688 -3.078125 -11.109375 C -4.609375 -9.785156 -5.832031 -8.53125 -6.75 -7.34375 C -7.675781 -6.164062 -8.140625 -5.175781 -8.140625 -4.375 C -8.140625 -3.789062 -7.804688 -3.5 -7.140625 -3.5 C -5.472656 -3.5 -3.222656 -4.242188 -0.390625 -5.734375 C 2.441406 -7.234375 5.726562 -9.257812 9.46875 -11.8125 C 13.207031 -14.375 17.25 -17.234375 21.59375 -20.390625 Z M 21.59375 -20.390625 "/></g></g></g><g fill="#fffaeb" fill-opacity="1"><g transform="translate(845.672538, 185.047413)"><g><path d="M 115.609375 -116.390625 C 115.609375 -114.859375 114.796875 -112.769531 113.171875 -110.125 C 111.554688 -107.488281 109.269531 -104.4375 106.3125 -100.96875 C 103.363281 -97.507812 99.890625 -93.753906 95.890625 -89.703125 C 91.890625 -85.648438 87.503906 -81.414062 82.734375 -77 C 77.972656 -72.582031 72.957031 -68.101562 67.6875 -63.5625 C 62.414062 -59.03125 57.03125 -54.546875 51.53125 -50.109375 C 46.039062 -45.671875 40.582031 -41.398438 35.15625 -37.296875 C 29.738281 -33.191406 24.476562 -29.375 19.375 -25.84375 C 14.28125 -22.320312 9.492188 -19.203125 5.015625 -16.484375 C -0.484375 -7.578125 -3.234375 -0.882812 -3.234375 3.59375 C -3.234375 5.019531 -2.910156 5.984375 -2.265625 6.484375 C -1.617188 6.992188 -0.378906 7.25 1.453125 7.25 C 2.953125 7.25 5.054688 6.78125 7.765625 5.84375 C 10.484375 4.90625 13.640625 3.582031 17.234375 1.875 C 20.835938 0.175781 24.742188 -1.835938 28.953125 -4.171875 C 33.160156 -6.503906 37.515625 -9.066406 42.015625 -11.859375 C 46.523438 -14.660156 51.023438 -17.613281 55.515625 -20.71875 C 55.785156 -20.957031 56.148438 -21.078125 56.609375 -21.078125 C 57.128906 -21.078125 57.570312 -20.894531 57.9375 -20.53125 C 58.300781 -20.164062 58.484375 -19.722656 58.484375 -19.203125 C 58.484375 -18.535156 58.203125 -18.015625 57.640625 -17.640625 C 54.304688 -15.335938 50.820312 -13.03125 47.1875 -10.71875 C 43.550781 -8.40625 39.898438 -6.175781 36.234375 -4.03125 C 32.566406 -1.894531 28.992188 0.0820312 25.515625 1.90625 C 22.035156 3.726562 18.765625 5.316406 15.703125 6.671875 C 12.640625 8.035156 9.890625 9.097656 7.453125 9.859375 C 5.023438 10.617188 3.023438 11 1.453125 11 C -1.390625 11 -3.503906 10.398438 -4.890625 9.203125 C -6.285156 8.003906 -6.984375 6.132812 -6.984375 3.59375 C -6.984375 1.0625 -6.234375 -2 -4.734375 -5.59375 C -3.242188 -9.195312 -1.15625 -13.179688 1.53125 -17.546875 C 4.226562 -21.921875 7.398438 -26.550781 11.046875 -31.4375 C 14.703125 -36.320312 18.703125 -41.335938 23.046875 -46.484375 C 27.398438 -51.628906 31.953125 -56.785156 36.703125 -61.953125 C 41.453125 -67.117188 46.296875 -72.160156 51.234375 -77.078125 C 56.171875 -82.003906 61.046875 -86.691406 65.859375 -91.140625 C 70.679688 -95.585938 75.332031 -99.671875 79.8125 -103.390625 C 84.300781 -107.117188 88.46875 -110.347656 92.3125 -113.078125 C 96.15625 -115.804688 99.5625 -117.925781 102.53125 -119.4375 C 105.507812 -120.957031 107.90625 -121.71875 109.71875 -121.71875 C 111.5625 -121.71875 113.003906 -121.242188 114.046875 -120.296875 C 115.085938 -119.359375 115.609375 -118.054688 115.609375 -116.390625 Z M 109.71875 -117.953125 C 108.1875 -117.953125 106.140625 -117.304688 103.578125 -116.015625 C 101.023438 -114.734375 98.0625 -112.910156 94.6875 -110.546875 C 91.3125 -108.179688 87.660156 -105.378906 83.734375 -102.140625 C 79.804688 -98.910156 75.6875 -95.347656 71.375 -91.453125 C 67.0625 -87.554688 62.664062 -83.414062 58.1875 -79.03125 C 53.71875 -74.65625 49.265625 -70.144531 44.828125 -65.5 C 40.398438 -60.851562 36.109375 -56.164062 31.953125 -51.4375 C 27.796875 -46.707031 23.875 -42.046875 20.1875 -37.453125 C 16.5 -32.867188 13.160156 -28.453125 10.171875 -24.203125 C 14.828125 -27.234375 19.660156 -30.554688 24.671875 -34.171875 C 29.679688 -37.785156 34.75 -41.59375 39.875 -45.59375 C 45.007812 -49.59375 50.085938 -53.675781 55.109375 -57.84375 C 60.140625 -62.019531 65.023438 -66.1875 69.765625 -70.34375 C 74.515625 -74.5 79.003906 -78.5625 83.234375 -82.53125 C 87.460938 -86.5 91.320312 -90.265625 94.8125 -93.828125 C 98.3125 -97.390625 101.328125 -100.648438 103.859375 -103.609375 C 106.398438 -106.566406 108.363281 -109.140625 109.75 -111.328125 C 111.144531 -113.515625 111.84375 -115.203125 111.84375 -116.390625 C 111.84375 -116.984375 111.695312 -117.390625 111.40625 -117.609375 C 111.113281 -117.835938 110.550781 -117.953125 109.71875 -117.953125 Z M 109.71875 -117.953125 "/></g></g></g><g fill="#fffaeb" fill-opacity="1"><g transform="translate(888.322011, 185.047413)"><g><path d="M 74.296875 -21.1875 C 74.773438 -21.1875 75.207031 -20.992188 75.59375 -20.609375 C 75.976562 -20.222656 76.171875 -19.785156 76.171875 -19.296875 C 76.171875 -18.640625 75.890625 -18.117188 75.328125 -17.734375 C 72.691406 -15.859375 69.769531 -14.015625 66.5625 -12.203125 C 63.363281 -10.398438 60.09375 -8.722656 56.75 -7.171875 C 53.414062 -5.628906 50.15625 -4.265625 46.96875 -3.078125 C 43.789062 -1.890625 40.894531 -0.96875 38.28125 -0.3125 C 35.675781 0.34375 33.523438 0.671875 31.828125 0.671875 C 28.898438 0.671875 26.660156 0.03125 25.109375 -1.25 C 23.566406 -2.539062 22.796875 -4.398438 22.796875 -6.828125 C 22.796875 -8.816406 23.253906 -10.835938 24.171875 -12.890625 C 25.097656 -14.941406 26.15625 -16.90625 27.34375 -18.78125 C 27.613281 -19.226562 27.671875 -19.519531 27.515625 -19.65625 C 27.359375 -19.800781 27.070312 -19.71875 26.65625 -19.40625 C 26.3125 -19.164062 25.960938 -18.914062 25.609375 -18.65625 C 25.265625 -18.394531 24.898438 -18.125 24.515625 -17.84375 C 22.535156 -16.414062 20.390625 -14.875 18.078125 -13.21875 C 15.765625 -11.570312 13.414062 -9.957031 11.03125 -8.375 C 8.644531 -6.789062 6.320312 -5.347656 4.0625 -4.046875 C 1.800781 -2.742188 -0.289062 -1.695312 -2.21875 -0.90625 C -4.144531 -0.125 -5.785156 0.265625 -7.140625 0.265625 C -8.566406 0.265625 -9.710938 -0.113281 -10.578125 -0.875 C -11.453125 -1.644531 -11.890625 -2.675781 -11.890625 -3.96875 C -11.890625 -5.351562 -11.347656 -6.84375 -10.265625 -8.4375 C -9.191406 -10.039062 -7.757812 -11.660156 -5.96875 -13.296875 C -4.175781 -14.929688 -2.1875 -16.492188 0 -17.984375 C 2.1875 -19.484375 4.398438 -20.828125 6.640625 -22.015625 C 8.890625 -23.203125 11.015625 -24.132812 13.015625 -24.8125 C 15.015625 -25.488281 16.691406 -25.828125 18.046875 -25.828125 C 19.722656 -25.828125 21.070312 -25.570312 22.09375 -25.0625 C 23.113281 -24.5625 23.972656 -23.738281 24.671875 -22.59375 C 26.660156 -24.019531 28.21875 -25.125 29.34375 -25.90625 C 30.476562 -26.6875 31.359375 -27.222656 31.984375 -27.515625 C 32.609375 -27.816406 33.113281 -27.96875 33.5 -27.96875 C 34.125 -27.96875 34.648438 -27.753906 35.078125 -27.328125 C 35.515625 -26.910156 35.734375 -26.390625 35.734375 -25.765625 C 35.734375 -25.179688 35.488281 -24.476562 35 -23.65625 C 34.519531 -22.84375 33.859375 -21.828125 33.015625 -20.609375 C 32.117188 -19.285156 31.164062 -17.832031 30.15625 -16.25 C 29.144531 -14.664062 28.289062 -13.066406 27.59375 -11.453125 C 26.894531 -9.835938 26.546875 -8.296875 26.546875 -6.828125 C 26.546875 -5.515625 26.953125 -4.5625 27.765625 -3.96875 C 28.585938 -3.375 29.941406 -3.078125 31.828125 -3.078125 C 33.285156 -3.078125 35.210938 -3.375 37.609375 -3.96875 C 40.015625 -4.5625 42.710938 -5.394531 45.703125 -6.46875 C 48.691406 -7.550781 51.796875 -8.828125 55.015625 -10.296875 C 58.234375 -11.773438 61.40625 -13.398438 64.53125 -15.171875 C 67.664062 -16.953125 70.550781 -18.832031 73.1875 -20.8125 C 73.46875 -21.0625 73.835938 -21.1875 74.296875 -21.1875 Z M 21.59375 -20.390625 C 21.21875 -21.085938 20.800781 -21.539062 20.34375 -21.75 C 19.894531 -21.957031 19.128906 -22.0625 18.046875 -22.0625 C 16.765625 -22.0625 15.226562 -21.738281 13.4375 -21.09375 C 11.644531 -20.457031 9.765625 -19.609375 7.796875 -18.546875 C 5.835938 -17.484375 3.914062 -16.304688 2.03125 -15.015625 C 0.15625 -13.734375 -1.546875 -12.429688 -3.078125 -11.109375 C -4.609375 -9.785156 -5.832031 -8.53125 -6.75 -7.34375 C -7.675781 -6.164062 -8.140625 -5.175781 -8.140625 -4.375 C -8.140625 -3.789062 -7.804688 -3.5 -7.140625 -3.5 C -5.472656 -3.5 -3.222656 -4.242188 -0.390625 -5.734375 C 2.441406 -7.234375 5.726562 -9.257812 9.46875 -11.8125 C 13.207031 -14.375 17.25 -17.234375 21.59375 -20.390625 Z M 21.59375 -20.390625 "/></g></g></g></g></g></g><g fill="#fffffb" fill-opacity="1"><g transform="translate(390.645389, 613.059701)"><g><path d="M 7.296875 0 L 7.296875 -39.3125 L 20.21875 -39.3125 C 23.320312 -39.3125 26.164062 -38.8125 28.75 -37.8125 C 31.332031 -36.820312 33.550781 -35.457031 35.40625 -33.71875 C 37.257812 -31.976562 38.703125 -29.910156 39.734375 -27.515625 C 40.765625 -25.117188 41.28125 -22.535156 41.28125 -19.765625 C 41.28125 -16.878906 40.742188 -14.226562 39.671875 -11.8125 C 38.609375 -9.40625 37.148438 -7.320312 35.296875 -5.5625 C 33.441406 -3.800781 31.28125 -2.429688 28.8125 -1.453125 C 26.34375 -0.484375 23.703125 0 20.890625 0 Z M 12.40625 -2.46875 L 18.59375 -2.46875 C 21.65625 -2.46875 24.265625 -2.984375 26.421875 -4.015625 C 28.578125 -5.046875 30.347656 -6.382812 31.734375 -8.03125 C 33.117188 -9.675781 34.128906 -11.519531 34.765625 -13.5625 C 35.398438 -15.601562 35.71875 -17.632812 35.71875 -19.65625 C 35.71875 -21.90625 35.34375 -24.066406 34.59375 -26.140625 C 33.84375 -28.210938 32.742188 -30.046875 31.296875 -31.640625 C 29.859375 -33.234375 28.070312 -34.5 25.9375 -35.4375 C 23.8125 -36.375 21.363281 -36.84375 18.59375 -36.84375 L 12.40625 -36.84375 Z M 12.40625 -2.46875 "/></g></g></g><g fill="#fffffb" fill-opacity="1"><g transform="translate(446.187324, 613.059701)"><g><path d="M 6.734375 -39.3125 L 6.734375 0 L 32.125 0 L 32.125 -3.09375 L 11.84375 -3.09375 L 11.84375 -19.546875 L 29.25 -19.546875 L 29.25 -22.125 L 11.84375 -22.125 L 11.84375 -36.21875 L 32.125 -36.21875 L 32.125 -39.3125 Z M 6.734375 -39.3125 "/></g></g></g><g fill="#fffffb" fill-opacity="1"><g transform="translate(492.575911, 613.059701)"><g><path d="M 2.078125 -9.9375 C 2.148438 -8.332031 2.570312 -6.875 3.34375 -5.5625 C 4.113281 -4.25 5.160156 -3.132812 6.484375 -2.21875 C 7.816406 -1.300781 9.378906 -0.585938 11.171875 -0.078125 C 12.972656 0.421875 14.941406 0.671875 17.078125 0.671875 C 19.242188 0.671875 21.195312 0.410156 22.9375 -0.109375 C 24.675781 -0.640625 26.160156 -1.390625 27.390625 -2.359375 C 28.628906 -3.328125 29.585938 -4.503906 30.265625 -5.890625 C 30.941406 -7.273438 31.28125 -8.8125 31.28125 -10.5 C 31.28125 -12.820312 30.695312 -14.722656 29.53125 -16.203125 C 28.375 -17.679688 26.925781 -18.914062 25.1875 -19.90625 C 23.445312 -20.894531 21.554688 -21.726562 19.515625 -22.40625 C 17.472656 -23.082031 15.582031 -23.789062 13.84375 -24.53125 C 12.101562 -25.28125 10.648438 -26.140625 9.484375 -27.109375 C 8.328125 -28.085938 7.75 -29.382812 7.75 -31 C 7.75 -31.894531 7.941406 -32.734375 8.328125 -33.515625 C 8.722656 -34.304688 9.304688 -34.992188 10.078125 -35.578125 C 10.847656 -36.160156 11.789062 -36.628906 12.90625 -36.984375 C 14.03125 -37.335938 15.328125 -37.515625 16.796875 -37.515625 C 19.222656 -37.515625 21.285156 -37 22.984375 -35.96875 C 24.691406 -34.9375 25.695312 -33.316406 26 -31.109375 L 29.8125 -31.109375 C 29.59375 -32.492188 29.085938 -33.738281 28.296875 -34.84375 C 27.515625 -35.945312 26.523438 -36.878906 25.328125 -37.640625 C 24.128906 -38.410156 22.769531 -38.992188 21.25 -39.390625 C 19.738281 -39.785156 18.160156 -39.984375 16.515625 -39.984375 C 14.785156 -39.984375 13.144531 -39.757812 11.59375 -39.3125 C 10.039062 -38.863281 8.675781 -38.207031 7.5 -37.34375 C 6.320312 -36.476562 5.382812 -35.390625 4.6875 -34.078125 C 4 -32.773438 3.65625 -31.28125 3.65625 -29.59375 C 3.65625 -27.382812 4.210938 -25.601562 5.328125 -24.25 C 6.453125 -22.90625 7.863281 -21.785156 9.5625 -20.890625 C 11.269531 -19.992188 13.113281 -19.226562 15.09375 -18.59375 C 17.082031 -17.957031 18.925781 -17.234375 20.625 -16.421875 C 22.332031 -15.617188 23.75 -14.632812 24.875 -13.46875 C 26 -12.3125 26.5625 -10.757812 26.5625 -8.8125 C 26.5625 -6.382812 25.671875 -4.609375 23.890625 -3.484375 C 22.117188 -2.359375 19.753906 -1.796875 16.796875 -1.796875 C 14.429688 -1.796875 12.535156 -2.101562 11.109375 -2.71875 C 9.691406 -3.34375 8.609375 -4.082031 7.859375 -4.9375 C 7.109375 -5.800781 6.601562 -6.691406 6.34375 -7.609375 C 6.082031 -8.523438 5.929688 -9.300781 5.890625 -9.9375 Z M 2.078125 -9.9375 "/></g></g></g><g fill="#fffffb" fill-opacity="1"><g transform="translate(540.256098, 613.059701)"><g><path d="M 8.984375 -39.3125 L 8.984375 0 L 14.09375 0 L 14.09375 -39.3125 Z M 8.984375 -39.3125 "/></g></g></g><g fill="#fffffb" fill-opacity="1"><g transform="translate(575.919028, 613.059701)"><g><path d="M 42.515625 -17.515625 L 31.390625 -17.515625 L 31.390625 -15.21875 L 37.6875 -15.21875 L 37.6875 -5.046875 C 36 -3.960938 34.273438 -3.160156 32.515625 -2.640625 C 30.753906 -2.117188 28.75 -1.859375 26.5 -1.859375 C 23.539062 -1.859375 20.957031 -2.304688 18.75 -3.203125 C 16.539062 -4.097656 14.707031 -5.34375 13.25 -6.9375 C 11.789062 -8.53125 10.695312 -10.421875 9.96875 -12.609375 C 9.238281 -14.796875 8.875 -17.203125 8.875 -19.828125 C 8.875 -22.410156 9.21875 -24.785156 9.90625 -26.953125 C 10.601562 -29.128906 11.644531 -31 13.03125 -32.5625 C 14.414062 -34.132812 16.109375 -35.351562 18.109375 -36.21875 C 20.109375 -37.082031 22.441406 -37.515625 25.109375 -37.515625 C 26.859375 -37.515625 28.5 -37.328125 30.03125 -36.953125 C 31.570312 -36.578125 32.941406 -36.085938 34.140625 -35.484375 C 35.335938 -34.890625 36.320312 -34.207031 37.09375 -33.4375 C 37.863281 -32.675781 38.359375 -31.898438 38.578125 -31.109375 L 42.625 -31.109375 C 42.28125 -31.929688 41.707031 -32.859375 40.90625 -33.890625 C 40.101562 -34.921875 39.007812 -35.882812 37.625 -36.78125 C 36.238281 -37.675781 34.523438 -38.429688 32.484375 -39.046875 C 30.441406 -39.671875 28.035156 -39.984375 25.265625 -39.984375 C 22.085938 -39.984375 19.160156 -39.53125 16.484375 -38.625 C 13.804688 -37.726562 11.492188 -36.4375 9.546875 -34.75 C 7.597656 -33.070312 6.082031 -31.003906 5 -28.546875 C 3.914062 -26.097656 3.375 -23.320312 3.375 -20.21875 C 3.375 -17.5625 3.789062 -14.988281 4.625 -12.5 C 5.46875 -10.007812 6.757812 -7.78125 8.5 -5.8125 C 10.25 -3.84375 12.46875 -2.269531 15.15625 -1.09375 C 17.851562 0.0820312 21.078125 0.671875 24.828125 0.671875 C 27.628906 0.671875 30.113281 0.363281 32.28125 -0.25 C 34.457031 -0.863281 36.257812 -1.546875 37.6875 -2.296875 L 37.6875 0 L 42.515625 0 Z M 42.515625 -17.515625 "/></g></g></g><g fill="#fffffb" fill-opacity="1"><g transform="translate(634.381057, 613.059701)"><g><path d="M 38.40625 -39.3125 L 38.40625 -9.265625 L 38.1875 -9.265625 L 7.015625 -39.984375 L 6.734375 -39.984375 L 6.734375 0 L 9.328125 0 L 9.328125 -30.046875 L 9.546875 -30.046875 L 40.71875 0.671875 L 41 0.671875 L 41 -39.3125 Z M 38.40625 -39.3125 "/></g></g></g><g fill="#fffffb" fill-opacity="1"><g transform="translate(694.696196, 613.059701)"><g/></g></g><g fill="#fffffb" fill-opacity="1"><g transform="translate(726.93364, 613.059701)"><g><path d="M 2.078125 -9.9375 C 2.148438 -8.332031 2.570312 -6.875 3.34375 -5.5625 C 4.113281 -4.25 5.160156 -3.132812 6.484375 -2.21875 C 7.816406 -1.300781 9.378906 -0.585938 11.171875 -0.078125 C 12.972656 0.421875 14.941406 0.671875 17.078125 0.671875 C 19.242188 0.671875 21.195312 0.410156 22.9375 -0.109375 C 24.675781 -0.640625 26.160156 -1.390625 27.390625 -2.359375 C 28.628906 -3.328125 29.585938 -4.503906 30.265625 -5.890625 C 30.941406 -7.273438 31.28125 -8.8125 31.28125 -10.5 C 31.28125 -12.820312 30.695312 -14.722656 29.53125 -16.203125 C 28.375 -17.679688 26.925781 -18.914062 25.1875 -19.90625 C 23.445312 -20.894531 21.554688 -21.726562 19.515625 -22.40625 C 17.472656 -23.082031 15.582031 -23.789062 13.84375 -24.53125 C 12.101562 -25.28125 10.648438 -26.140625 9.484375 -27.109375 C 8.328125 -28.085938 7.75 -29.382812 7.75 -31 C 7.75 -31.894531 7.941406 -32.734375 8.328125 -33.515625 C 8.722656 -34.304688 9.304688 -34.992188 10.078125 -35.578125 C 10.847656 -36.160156 11.789062 -36.628906 12.90625 -36.984375 C 14.03125 -37.335938 15.328125 -37.515625 16.796875 -37.515625 C 19.222656 -37.515625 21.285156 -37 22.984375 -35.96875 C 24.691406 -34.9375 25.695312 -33.316406 26 -31.109375 L 29.8125 -31.109375 C 29.59375 -32.492188 29.085938 -33.738281 28.296875 -34.84375 C 27.515625 -35.945312 26.523438 -36.878906 25.328125 -37.640625 C 24.128906 -38.410156 22.769531 -38.992188 21.25 -39.390625 C 19.738281 -39.785156 18.160156 -39.984375 16.515625 -39.984375 C 14.785156 -39.984375 13.144531 -39.757812 11.59375 -39.3125 C 10.039062 -38.863281 8.675781 -38.207031 7.5 -37.34375 C 6.320312 -36.476562 5.382812 -35.390625 4.6875 -34.078125 C 4 -32.773438 3.65625 -31.28125 3.65625 -29.59375 C 3.65625 -27.382812 4.210938 -25.601562 5.328125 -24.25 C 6.453125 -22.90625 7.863281 -21.785156 9.5625 -20.890625 C 11.269531 -19.992188 13.113281 -19.226562 15.09375 -18.59375 C 17.082031 -17.957031 18.925781 -17.234375 20.625 -16.421875 C 22.332031 -15.617188 23.75 -14.632812 24.875 -13.46875 C 26 -12.3125 26.5625 -10.757812 26.5625 -8.8125 C 26.5625 -6.382812 25.671875 -4.609375 23.890625 -3.484375 C 22.117188 -2.359375 19.753906 -1.796875 16.796875 -1.796875 C 14.429688 -1.796875 12.535156 -2.101562 11.109375 -2.71875 C 9.691406 -3.34375 8.609375 -4.082031 7.859375 -4.9375 C 7.109375 -5.800781 6.601562 -6.691406 6.34375 -7.609375 C 6.082031 -8.523438 5.929688 -9.300781 5.890625 -9.9375 Z M 2.078125 -9.9375 "/></g></g></g><g fill="#fffffb" fill-opacity="1"><g transform="translate(774.61382, 613.059701)"><g><path d="M 21.28125 0 L 21.28125 -36.21875 L 36.328125 -36.21875 L 36.328125 -39.3125 L 1.125 -39.3125 L 1.125 -36.21875 L 16.171875 -36.21875 L 16.171875 0 Z M 21.28125 0 "/></g></g></g><g fill="#fffffb" fill-opacity="1"><g transform="translate(824.652527, 613.059701)"><g><path d="M 4.5 -39.3125 L 4.5 -15.15625 C 4.5 -13.625 4.644531 -11.929688 4.9375 -10.078125 C 5.238281 -8.222656 5.953125 -6.5 7.078125 -4.90625 C 8.203125 -3.320312 9.867188 -1.992188 12.078125 -0.921875 C 14.285156 0.140625 17.296875 0.671875 21.109375 0.671875 C 23.503906 0.671875 25.628906 0.296875 27.484375 -0.453125 C 29.335938 -1.203125 30.890625 -2.226562 32.140625 -3.53125 C 33.398438 -4.84375 34.347656 -6.367188 34.984375 -8.109375 C 35.617188 -9.847656 35.9375 -11.710938 35.9375 -13.703125 L 35.9375 -39.3125 L 33.46875 -39.3125 L 33.46875 -15.5625 C 33.46875 -14.726562 33.445312 -13.890625 33.40625 -13.046875 C 33.375 -12.210938 33.265625 -11.375 33.078125 -10.53125 C 32.890625 -9.6875 32.597656 -8.851562 32.203125 -8.03125 C 31.804688 -7.207031 31.238281 -6.382812 30.5 -5.5625 C 29.144531 -4.101562 27.625 -3.109375 25.9375 -2.578125 C 24.257812 -2.054688 22.503906 -1.796875 20.671875 -1.796875 C 19.097656 -1.796875 17.703125 -2.035156 16.484375 -2.515625 C 15.265625 -3.003906 14.113281 -3.738281 13.03125 -4.71875 C 12.164062 -5.46875 11.507812 -6.21875 11.0625 -6.96875 C 10.613281 -7.71875 10.273438 -8.457031 10.046875 -9.1875 C 9.828125 -9.914062 9.695312 -10.648438 9.65625 -11.390625 C 9.625 -12.140625 9.609375 -12.890625 9.609375 -13.640625 L 9.609375 -39.3125 Z M 4.5 -39.3125 "/></g></g></g><g fill="#fffffb" fill-opacity="1"><g transform="translate(877.667499, 613.059701)"><g><path d="M 7.296875 0 L 7.296875 -39.3125 L 20.21875 -39.3125 C 23.320312 -39.3125 26.164062 -38.8125 28.75 -37.8125 C 31.332031 -36.820312 33.550781 -35.457031 35.40625 -33.71875 C 37.257812 -31.976562 38.703125 -29.910156 39.734375 -27.515625 C 40.765625 -25.117188 41.28125 -22.535156 41.28125 -19.765625 C 41.28125 -16.878906 40.742188 -14.226562 39.671875 -11.8125 C 38.609375 -9.40625 37.148438 -7.320312 35.296875 -5.5625 C 33.441406 -3.800781 31.28125 -2.429688 28.8125 -1.453125 C 26.34375 -0.484375 23.703125 0 20.890625 0 Z M 12.40625 -2.46875 L 18.59375 -2.46875 C 21.65625 -2.46875 24.265625 -2.984375 26.421875 -4.015625 C 28.578125 -5.046875 30.347656 -6.382812 31.734375 -8.03125 C 33.117188 -9.675781 34.128906 -11.519531 34.765625 -13.5625 C 35.398438 -15.601562 35.71875 -17.632812 35.71875 -19.65625 C 35.71875 -21.90625 35.34375 -24.066406 34.59375 -26.140625 C 33.84375 -28.210938 32.742188 -30.046875 31.296875 -31.640625 C 29.859375 -33.234375 28.070312 -34.5 25.9375 -35.4375 C 23.8125 -36.375 21.363281 -36.84375 18.59375 -36.84375 L 12.40625 -36.84375 Z M 12.40625 -2.46875 "/></g></g></g><g fill="#fffffb" fill-opacity="1"><g transform="translate(933.209431, 613.059701)"><g><path d="M 8.984375 -39.3125 L 8.984375 0 L 14.09375 0 L 14.09375 -39.3125 Z M 8.984375 -39.3125 "/></g></g></g><g fill="#fffffb" fill-opacity="1"><g transform="translate(968.872388, 613.059701)"><g><path d="M 2.8125 -19.65625 C 2.8125 -17.5625 3.210938 -15.320312 4.015625 -12.9375 C 4.816406 -10.5625 6.078125 -8.363281 7.796875 -6.34375 C 9.523438 -4.320312 11.71875 -2.644531 14.375 -1.3125 C 17.03125 0.0078125 20.210938 0.671875 23.921875 0.671875 C 26.429688 0.671875 28.707031 0.363281 30.75 -0.25 C 32.789062 -0.863281 34.625 -1.695312 36.25 -2.75 C 37.875 -3.800781 39.285156 -5.007812 40.484375 -6.375 C 41.679688 -7.738281 42.664062 -9.175781 43.4375 -10.6875 C 44.207031 -12.207031 44.785156 -13.734375 45.171875 -15.265625 C 45.566406 -16.804688 45.765625 -18.269531 45.765625 -19.65625 C 45.765625 -21.75 45.332031 -23.984375 44.46875 -26.359375 C 43.613281 -28.742188 42.285156 -30.945312 40.484375 -32.96875 C 38.691406 -34.988281 36.414062 -36.660156 33.65625 -37.984375 C 30.90625 -39.316406 27.660156 -39.984375 23.921875 -39.984375 C 20.210938 -39.984375 17.03125 -39.328125 14.375 -38.015625 C 11.71875 -36.703125 9.523438 -35.046875 7.796875 -33.046875 C 6.078125 -31.046875 4.816406 -28.847656 4.015625 -26.453125 C 3.210938 -24.054688 2.8125 -21.789062 2.8125 -19.65625 Z M 8.3125 -19.65625 C 8.3125 -22.269531 8.710938 -24.671875 9.515625 -26.859375 C 10.316406 -29.054688 11.421875 -30.941406 12.828125 -32.515625 C 14.234375 -34.085938 15.890625 -35.3125 17.796875 -36.1875 C 19.710938 -37.070312 21.789062 -37.515625 24.03125 -37.515625 C 26.238281 -37.515625 28.328125 -37.070312 30.296875 -36.1875 C 32.265625 -35.3125 33.988281 -34.085938 35.46875 -32.515625 C 36.945312 -30.941406 38.113281 -29.054688 38.96875 -26.859375 C 39.832031 -24.671875 40.265625 -22.269531 40.265625 -19.65625 C 40.265625 -17.03125 39.832031 -14.625 38.96875 -12.4375 C 38.113281 -10.25 36.945312 -8.367188 35.46875 -6.796875 C 33.988281 -5.222656 32.265625 -3.992188 30.296875 -3.109375 C 28.328125 -2.234375 26.238281 -1.796875 24.03125 -1.796875 C 21.789062 -1.796875 19.710938 -2.234375 17.796875 -3.109375 C 15.890625 -3.992188 14.234375 -5.222656 12.828125 -6.796875 C 11.421875 -8.367188 10.316406 -10.25 9.515625 -12.4375 C 8.710938 -14.625 8.3125 -17.03125 8.3125 -19.65625 Z M 8.3125 -19.65625 "/></g></g></g></svg>